<svg xmlns="http://www.w3.org/2000/svg" width="136.574" height="88.278" viewBox="0 0 136.574 88.278">
  <g id="Group_840" data-name="Group 840" transform="translate(-242 -2843.809)">
    <g id="Group_827" data-name="Group 827" transform="translate(1631.22 -9587.121)">
      <path id="Path_1694" data-name="Path 1694" d="M54.765,41.3H51.858a1.746,1.746,0,0,1-1.744-1.744V37.813A5.82,5.82,0,0,0,44.3,32a1.162,1.162,0,0,0-1.163,1.163v8.788a1.162,1.162,0,0,1-.8,1.1l-.367.122v-.713A1.162,1.162,0,0,0,40.813,41.3H36.163A1.162,1.162,0,0,0,35,42.464V56.416a1.162,1.162,0,0,0,1.163,1.163h4.651a1.162,1.162,0,0,0,1.163-1.163v-.25a11.57,11.57,0,0,0,5.495,1.413h7.294a3.473,3.473,0,0,0,2.581-5.813,3.435,3.435,0,0,0,0-4.651A3.473,3.473,0,0,0,54.765,41.3ZM39.651,55.253H37.325V43.626h2.325V55.253Zm15.114,0H47.471a9.274,9.274,0,0,1-5.16-1.563l-.335-.222V45.627l1.1-.367a3.484,3.484,0,0,0,2.385-3.309V34.524a3.5,3.5,0,0,1,2.325,3.289v1.744a4.074,4.074,0,0,0,4.069,4.069h2.907a1.163,1.163,0,1,1,0,2.325v2.325a1.163,1.163,0,0,1,0,2.325v2.325a1.163,1.163,0,0,1,0,2.325Z" transform="translate(-1352.853 12448)" fill="#7ecc3c"/>
      <path id="Path_1695" data-name="Path 1695" d="M51.994,32.229A19.724,19.724,0,0,0,36.249,40.1l-5.183-1.728V34.055c.1-.079.206-.15.306-.233A18.467,18.467,0,0,0,37.986,20.6h.056A1.162,1.162,0,0,0,39.2,19.44V18.277a16.277,16.277,0,1,0-32.554,0V20.6a1.16,1.16,0,0,0,1.163,1.163,1.2,1.2,0,0,0,.142-.022,18.5,18.5,0,0,0,6.528,12.08c.1.083.2.153.306.233v4.312L5.12,41.59A1.162,1.162,0,0,0,4.33,42.6L2,70.5a1.163,1.163,0,0,0,1.158,1.259h39.53A1.163,1.163,0,0,0,43.852,70.5l-.045-.538a19.756,19.756,0,1,0,8.187-37.733ZM25.177,57.685l-2.25,4.5-2.25-4.5,2.25-8.248Zm3.564-11.955L25.959,44.8l2.782-1.392Zm-11.626,0V43.411L19.9,44.8ZM8.976,18.277a13.952,13.952,0,1,1,27.9,0H33.391a5.82,5.82,0,0,1-5.813-5.813,1.162,1.162,0,0,0-1.415-1.135l-.7.156q-1.141.253-2.263.558c-.065.017-.128.038-.192.056-.693.191-1.382.394-2.064.613h0A49.925,49.925,0,0,0,8.976,18.4Zm1.2,2.14a48.585,48.585,0,0,1,5.369-3.036l.148-.071q.825-.4,1.663-.757l.388-.165q.75-.317,1.51-.609c.213-.081.428-.158.642-.236.442-.162.884-.322,1.33-.471.328-.109.66-.208.992-.31.35-.108.7-.221,1.052-.322.7-.2,1.4-.384,2.113-.551A8.154,8.154,0,0,0,33.391,20.6h2.294a16.17,16.17,0,0,1-5.8,11.433c-.212.177-.431.338-.652.5h0a10.954,10.954,0,0,1-1.42.852l-.09.047a10.855,10.855,0,0,1-1.47.594l-.113.035a10.952,10.952,0,0,1-1.543.36l-.044.006a10.881,10.881,0,0,1-3.251,0l-.035,0a10.918,10.918,0,0,1-1.554-.363l-.1-.03a10.669,10.669,0,0,1-1.481-.6l-.078-.04a10.935,10.935,0,0,1-1.427-.857h0c-.221-.158-.439-.32-.651-.5A16.2,16.2,0,0,1,10.171,20.417Zm9.719,16.1c.064.015.128.027.192.042q.612.134,1.232.212c.066.008.131.019.2.026a11.856,11.856,0,0,0,2.832,0c.066-.007.131-.017.2-.026q.621-.077,1.232-.212c.064-.014.128-.027.192-.042a13.143,13.143,0,0,0,2.723-.971l.052-.022v5.289l-5.813,2.907-5.813-2.907V35.524l.052.022A13.049,13.049,0,0,0,19.89,36.515ZM6.583,43.553l8.206-2.735V69.433H4.426ZM17.114,69.433V48.181l4.12-1.373L18.318,57.5a1.166,1.166,0,0,0,.081.825L21.887,65.3a1.164,1.164,0,0,0,2.081,0l3.488-6.976a1.16,1.16,0,0,0,.081-.825L24.62,46.807l4.12,1.374V69.433Zm24.248-.8.066.8H31.066V40.818l3.825,1.275c-.062.107-.115.217-.174.326s-.133.243-.2.366c-.244.462-.473.931-.68,1.409-.022.05-.047.1-.067.149-.224.531-.419,1.072-.594,1.62-.04.123-.077.248-.114.372-.155.517-.293,1.039-.4,1.568-.01.049-.024.1-.034.146-.116.572-.2,1.151-.265,1.734-.015.137-.028.276-.041.414-.055.594-.092,1.193-.092,1.8,0,.619.037,1.229.093,1.835.009.106.019.213.03.319.066.613.157,1.218.278,1.816a.238.238,0,0,1,.006.028,19.478,19.478,0,0,0,5.309,9.885l.165.166c.4.388.8.766,1.235,1.123.145.122.3.233.449.35.249.2.5.386.763.57.243.173.489.343.741.506C41.318,68.6,41.339,68.62,41.362,68.635Zm10.631.8A17.31,17.31,0,0,1,42.9,66.848c-.436-.267-.853-.552-1.259-.851-.178-.131-.359-.259-.531-.4s-.319-.266-.477-.4c-.278-.24-.552-.484-.815-.741-.067-.065-.136-.128-.2-.193a17.388,17.388,0,0,1-4.952-10.35c-.012-.1-.021-.207-.03-.31-.049-.531-.081-1.067-.081-1.611s.033-1.072.081-1.6c.014-.156.034-.309.052-.464q.07-.588.178-1.163c.028-.148.052-.3.084-.441a17.335,17.335,0,0,1,.921-2.961c.058-.142.123-.281.186-.423q.225-.5.479-.992c.078-.149.156-.3.237-.445.193-.345.4-.681.615-1.012.065-.1.124-.2.192-.3A17.436,17.436,0,1,1,51.994,69.433Z" transform="translate(-1358.22 12443.121)" fill="#7ecc3c"/>
      <rect id="Rectangle_77" data-name="Rectangle 77" width="2.325" height="2.325" transform="translate(-1316.691 12447.446)" fill="#7ecc3c"/>
      <rect id="Rectangle_78" data-name="Rectangle 78" width="2.325" height="2.325" transform="translate(-1312.04 12447.446)" fill="#7ecc3c"/>
      <rect id="Rectangle_79" data-name="Rectangle 79" width="2.325" height="2.325" transform="translate(-1307.389 12470.699)" fill="#7ecc3c"/>
      <rect id="Rectangle_80" data-name="Rectangle 80" width="2.325" height="2.325" transform="translate(-1307.389 12466.049)" fill="#7ecc3c"/>
      <rect id="Rectangle_81" data-name="Rectangle 81" width="2.325" height="2.325" transform="translate(-1307.389 12461.398)" fill="#7ecc3c"/>
      <rect id="Rectangle_82" data-name="Rectangle 82" width="2.325" height="2.325" transform="translate(-1307.389 12456.748)" fill="#7ecc3c"/>
      <rect id="Rectangle_83" data-name="Rectangle 83" width="2.325" height="2.325" transform="translate(-1307.389 12452.097)" fill="#7ecc3c"/>
      <rect id="Rectangle_84" data-name="Rectangle 84" width="2.325" height="2.325" transform="translate(-1307.389 12447.446)" fill="#7ecc3c"/>
      <rect id="Rectangle_85" data-name="Rectangle 85" width="2.325" height="2.325" transform="translate(-1321.341 12447.446)" fill="#7ecc3c"/>
    </g>
    <g id="Group_835" data-name="Group 835" transform="translate(1878.408 -9613)">
      <g id="Group_829" data-name="Group 829" transform="translate(-1607.622 12364.418)">
        <path id="Path_1738" data-name="Path 1738" d="M99.5,152.156c-.374,3.049-.5,4.985-1.227,6.235-1.193,1.553-3.261,1.7-7.06,2.052,3.737.452,5.758.55,6.955,1.973.894,1.26,1.045,3.208,1.332,6.314.487-4.027.564-6.061,2.33-7.219,1.256-.606,3.129-.739,5.957-1.068-3.507-.43-5.541-.529-6.753-1.6C100.01,157.622,99.9,155.594,99.5,152.156Z" fill="#7ecc3c"/>
      </g>
      <g id="Group_831" data-name="Group 831" transform="translate(-1727.622 12336.418)">
        <path id="Path_1738-2" data-name="Path 1738" d="M99.5,152.156c-.374,3.049-.5,4.985-1.227,6.235-1.193,1.553-3.261,1.7-7.06,2.052,3.737.452,5.758.55,6.955,1.973.894,1.26,1.045,3.208,1.332,6.314.487-4.027.564-6.061,2.33-7.219,1.256-.606,3.129-.739,5.957-1.068-3.507-.43-5.541-.529-6.753-1.6C100.01,157.622,99.9,155.594,99.5,152.156Z" fill="#7ecc3c"/>
      </g>
      <g id="Group_833" data-name="Group 833" transform="translate(-1709.387 12304.652)">
        <path id="Path_1738-3" data-name="Path 1738" d="M96.266,152.156c-.228,1.859-.3,3.039-.748,3.8-.727.947-1.988,1.037-4.3,1.251,2.279.276,3.51.335,4.24,1.2.545.768.637,1.956.812,3.849.3-2.455.344-3.7,1.42-4.4a13.129,13.129,0,0,1,3.632-.651c-2.138-.262-3.378-.322-4.117-.975C96.576,155.488,96.51,154.252,96.266,152.156Z" transform="translate(0 0)" fill="#7ecc3c"/>
      </g>
      <g id="Group_830" data-name="Group 830" transform="translate(-1623.663 12307.376)">
        <path id="Path_1738-4" data-name="Path 1738" d="M95.542,152.156a9.755,9.755,0,0,1-.641,3.257c-.623.811-1.7.889-3.688,1.072,1.952.236,3.008.287,3.633,1.031.467.658.546,1.676.7,3.3.255-2.1.294-3.166,1.217-3.771a11.25,11.25,0,0,1,3.112-.558c-1.832-.224-2.895-.276-3.527-.836C95.809,155.011,95.752,153.952,95.542,152.156Z" fill="#7ecc3c"/>
      </g>
      <g id="Group_834" data-name="Group 834" transform="translate(-1713.715 12384.273)">
        <path id="Path_1738-5" data-name="Path 1738" d="M95.542,152.156a9.755,9.755,0,0,1-.641,3.257c-.623.811-1.7.889-3.688,1.072,1.952.236,3.008.287,3.633,1.031.467.658.546,1.676.7,3.3.255-2.1.294-3.166,1.217-3.771a11.25,11.25,0,0,1,3.112-.558c-1.832-.224-2.895-.276-3.527-.836C95.809,155.011,95.752,153.952,95.542,152.156Z" fill="#7ecc3c"/>
      </g>
    </g>
  </g>
</svg>
