<svg xmlns="http://www.w3.org/2000/svg" width="136.574" height="88.278" viewBox="0 0 136.574 88.278">
  <g id="Group_842" data-name="Group 842" transform="translate(-1109 -2843.808)">
    <g id="Group_825" data-name="Group 825" transform="translate(1142.2 2858.9)">
      <path id="Path_1725" data-name="Path 1725" d="M51.083,48.633h0L50.977,44.7a6.484,6.484,0,0,1,2.976,1.169l1.382-1.913a8.4,8.4,0,0,0-4.357-1.594V41.3H49.6v1.063c-2.551.106-4.57,1.7-4.57,4.251,0,2.657,1.807,3.507,4.57,4.251V54.8a7.75,7.75,0,0,1-3.614-1.807L44.6,54.8a8.557,8.557,0,0,0,5.1,2.232v1.488h1.382V57.029c2.657-.106,4.676-1.594,4.676-4.251S53.74,49.271,51.083,48.633ZM49.7,48.208c-1.169-.425-2.019-.744-2.019-1.913,0-1.063.957-1.594,2.019-1.7Zm1.275,6.7v-3.72c1.275.425,2.126.744,2.126,1.913C53.209,54.266,52.146,54.8,50.977,54.9Z" transform="translate(2.751 2.525)" fill="#7ecc3c"/>
      <path id="Path_1726" data-name="Path 1726" d="M41.772,31.879a1,1,0,0,0-1.063-1.063H30.826V18.063a1.063,1.063,0,1,0-2.126,0V31.879a1,1,0,0,0,1.063,1.063H40.71A1.065,1.065,0,0,0,41.772,31.879Z" transform="translate(1.752 0.999)" fill="#7ecc3c"/>
      <path id="Path_1727" data-name="Path 1727" d="M61.486,38.617a29.012,29.012,0,0,0,.744-6.8A30.715,30.715,0,1,0,31.515,62.53a26.829,26.829,0,0,0,7.758-1.063,16.575,16.575,0,0,0,13.6,7.333,16.3,16.3,0,0,0,8.609-30.184ZM31.515,60.4A28.589,28.589,0,1,1,60.1,31.815a26.384,26.384,0,0,1-.638,5.739,14.6,14.6,0,0,0-3.826-1.169,22.178,22.178,0,0,0,.425-4.57A24.561,24.561,0,0,0,31.515,7.264h0a24.6,24.6,0,1,0-.106,49.208h0a23.594,23.594,0,0,0,5.42-.638,21.926,21.926,0,0,0,1.275,3.72A26.646,26.646,0,0,1,31.515,60.4Zm5.1-7.865a3.985,3.985,0,0,0,.106,1.169,16.821,16.821,0,0,1-4.039.531V51.052a1.063,1.063,0,1,0-2.126,0V54.24a21.663,21.663,0,0,1-14.029-5.845l2.232-2.232a1.052,1.052,0,0,0-1.488-1.488l-2.232,2.232A21.033,21.033,0,0,1,9.09,32.878h3.188a1.063,1.063,0,1,0,0-2.126H9.09a21.891,21.891,0,0,1,5.845-14.029l2.232,2.232a1.052,1.052,0,0,0,1.488-1.488l-2.232-2.232A23.067,23.067,0,0,1,30.452,9.39v3.188a1.063,1.063,0,1,0,2.126,0V9.39a21.663,21.663,0,0,1,14.029,5.845l-2.232,2.232a1.052,1.052,0,0,0,1.488,1.488l2.232-2.232A22.462,22.462,0,0,1,53.94,30.752H50.752a1.063,1.063,0,1,0,0,2.126H53.94a17.488,17.488,0,0,1-.425,3.295h-.638A16.352,16.352,0,0,0,36.616,52.54ZM52.877,66.675A14.242,14.242,0,1,1,67.119,52.433,14.242,14.242,0,0,1,52.877,66.675Z" fill="#7ecc3c"/>
    </g>
    <g id="Group_837" data-name="Group 837" transform="translate(2745.408 -9613.001)">
      <g id="Group_829" data-name="Group 829" transform="translate(-1607.622 12364.418)">
        <path id="Path_1738" data-name="Path 1738" d="M99.5,152.156c-.374,3.049-.5,4.985-1.227,6.235-1.193,1.553-3.261,1.7-7.06,2.052,3.737.452,5.758.55,6.955,1.973.894,1.26,1.045,3.208,1.332,6.314.487-4.027.564-6.061,2.33-7.219,1.256-.606,3.129-.739,5.957-1.068-3.507-.43-5.541-.529-6.753-1.6C100.01,157.622,99.9,155.594,99.5,152.156Z" fill="#7ecc3c"/>
      </g>
      <g id="Group_831" data-name="Group 831" transform="translate(-1727.622 12336.418)">
        <path id="Path_1738-2" data-name="Path 1738" d="M99.5,152.156c-.374,3.049-.5,4.985-1.227,6.235-1.193,1.553-3.261,1.7-7.06,2.052,3.737.452,5.758.55,6.955,1.973.894,1.26,1.045,3.208,1.332,6.314.487-4.027.564-6.061,2.33-7.219,1.256-.606,3.129-.739,5.957-1.068-3.507-.43-5.541-.529-6.753-1.6C100.01,157.622,99.9,155.594,99.5,152.156Z" fill="#7ecc3c"/>
      </g>
      <g id="Group_833" data-name="Group 833" transform="translate(-1709.387 12304.652)">
        <path id="Path_1738-3" data-name="Path 1738" d="M96.266,152.156c-.228,1.859-.3,3.039-.748,3.8-.727.947-1.988,1.037-4.3,1.251,2.279.276,3.51.335,4.24,1.2.545.768.637,1.956.812,3.849.3-2.455.344-3.7,1.42-4.4a13.129,13.129,0,0,1,3.632-.651c-2.138-.262-3.378-.322-4.117-.975C96.576,155.488,96.51,154.252,96.266,152.156Z" transform="translate(0 0)" fill="#7ecc3c"/>
      </g>
      <g id="Group_830" data-name="Group 830" transform="translate(-1623.663 12307.376)">
        <path id="Path_1738-4" data-name="Path 1738" d="M95.542,152.156a9.755,9.755,0,0,1-.641,3.257c-.623.811-1.7.889-3.688,1.072,1.952.236,3.008.287,3.633,1.031.467.658.546,1.676.7,3.3.255-2.1.294-3.166,1.217-3.771a11.25,11.25,0,0,1,3.112-.558c-1.832-.224-2.895-.276-3.527-.836C95.809,155.011,95.752,153.952,95.542,152.156Z" fill="#7ecc3c"/>
      </g>
      <g id="Group_834" data-name="Group 834" transform="translate(-1713.715 12384.273)">
        <path id="Path_1738-5" data-name="Path 1738" d="M95.542,152.156a9.755,9.755,0,0,1-.641,3.257c-.623.811-1.7.889-3.688,1.072,1.952.236,3.008.287,3.633,1.031.467.658.546,1.676.7,3.3.255-2.1.294-3.166,1.217-3.771a11.25,11.25,0,0,1,3.112-.558c-1.832-.224-2.895-.276-3.527-.836C95.809,155.011,95.752,153.952,95.542,152.156Z" fill="#7ecc3c"/>
      </g>
    </g>
  </g>
</svg>
