<svg xmlns="http://www.w3.org/2000/svg" width="136.574" height="88.278" viewBox="0 0 136.574 88.278">
  <g id="Group_841" data-name="Group 841" transform="translate(-675 -2843.807)">
    <g id="Group_819" data-name="Group 819" transform="translate(710 2860)">
      <path id="Path_1692" data-name="Path 1692" d="M37.417,6a1.54,1.54,0,0,0-1.372,1.227l-.77,3.8a14.8,14.8,0,0,0-1.733.722L30.294,9.609a1.54,1.54,0,0,0-1.925.217c-1.165,1.168-2.438,2.339-3.658,3.562a1.54,1.54,0,0,0-.193,1.949l2.19,3.249a15.2,15.2,0,0,0-.722,1.757l-3.875.842A1.54,1.54,0,0,0,20.884,22.7c0,1.691,0,3.339,0,5.03a1.54,1.54,0,0,0,1.227,1.492l3.875.842a15.211,15.211,0,0,0,.722,1.757L24.518,35.1a1.54,1.54,0,0,0,.193,1.925c1.22,1.223,2.493,2.394,3.658,3.562a1.54,1.54,0,0,0,1.925.217l3.273-2.118A14.865,14.865,0,0,0,35.3,39.4l.746,3.778a1.54,1.54,0,0,0,1.516,1.251h5.1a1.54,1.54,0,0,0,1.516-1.251l.746-3.778a14.865,14.865,0,0,0,1.733-.722L49.931,40.8a1.54,1.54,0,0,0,1.925-.217c1.165-1.168,2.438-2.339,3.658-3.562a1.54,1.54,0,0,0,.193-1.925l-2.19-3.273a15.24,15.24,0,0,0,.722-1.757l3.875-.842a1.54,1.54,0,0,0,1.227-1.492c0-1.691,0-3.339,0-5.03a1.54,1.54,0,0,0-1.227-1.516l-3.875-.842a15.228,15.228,0,0,0-.722-1.757l2.19-3.249a1.54,1.54,0,0,0-.193-1.949c-1.22-1.223-2.493-2.394-3.658-3.562a1.54,1.54,0,0,0-1.925-.217l-3.249,2.142a14.807,14.807,0,0,0-1.733-.722l-.77-3.8A1.54,1.54,0,0,0,42.664,6h-5.1q-.072,0-.144,0Zm1.42,3.08h2.551l.674,3.321a1.54,1.54,0,0,0,1.131,1.179,11.7,11.7,0,0,1,2.888,1.227,1.54,1.54,0,0,0,1.612-.048l2.888-1.877c.622.606,1.245,1.189,1.853,1.781l-1.925,2.888a1.54,1.54,0,0,0-.072,1.612A12.48,12.48,0,0,1,51.664,22.1a1.54,1.54,0,0,0,1.155,1.107l3.441.722c0,.849,0,1.7,0,2.551l-3.441.746a1.54,1.54,0,0,0-1.155,1.107,12.3,12.3,0,0,1-1.227,2.912,1.54,1.54,0,0,0,.072,1.636l1.9,2.864c-.608.592-1.207,1.2-1.829,1.8l-2.888-1.9a1.54,1.54,0,0,0-1.612-.024,11.634,11.634,0,0,1-2.888,1.2,1.54,1.54,0,0,0-1.131,1.179l-.674,3.345H38.837l-.674-3.345a1.54,1.54,0,0,0-1.131-1.179,11.634,11.634,0,0,1-2.888-1.2,1.54,1.54,0,0,0-1.612.024l-2.888,1.9c-.622-.607-1.221-1.213-1.829-1.8l1.9-2.864a1.54,1.54,0,0,0,.072-1.636,12.3,12.3,0,0,1-1.227-2.912,1.54,1.54,0,0,0-1.155-1.107l-3.441-.746V23.929l3.441-.722A1.54,1.54,0,0,0,28.561,22.1a12.477,12.477,0,0,1,1.227-2.936,1.54,1.54,0,0,0-.072-1.612l-1.925-2.888c.608-.592,1.231-1.174,1.853-1.781l2.888,1.877a1.54,1.54,0,0,0,1.612.048,11.7,11.7,0,0,1,2.888-1.227A1.54,1.54,0,0,0,38.163,12.4Zm1.275,9.939A6.185,6.185,0,1,0,46.3,25.2,6.206,6.206,0,0,0,40.113,19.019Zm0,3.08a3.1,3.1,0,1,1-3.1,3.1A3.1,3.1,0,0,1,40.113,22.1ZM68.751,37.02a4.324,4.324,0,0,0-3.08,1.348l-.024-.024-.024.048c-.035.035-2.112,2.091-4.38,4.356-2.287,2.283-4.676,4.657-5.391,5.439a1.542,1.542,0,0,0,2.286,2.07c.488-.533,2.988-3.04,5.27-5.319s4.4-4.4,4.4-4.4l.048-.024a1.186,1.186,0,0,1,.89-.409,1.574,1.574,0,0,1,1.4,1.733,1.964,1.964,0,0,1-.361,1.155c0,.008,0,.019,0,.024-.067.081-9.279,11.135-15.234,18.1-1.645,1.923-3.9,3.826-7.1,3.826H29.187a7.67,7.67,0,0,0-5.631,1.925L19.2,71.122a1.54,1.54,0,1,0,2.166,2.19l4.356-4.26c.879-.86,1.81-1.035,3.465-1.035H47.453c4.423,0,7.52-2.672,9.434-4.909,6-7.02,15.306-18.194,15.306-18.194q.025-.035.048-.072a5.042,5.042,0,0,0,.987-3.008A4.664,4.664,0,0,0,68.751,37.02ZM28.128,48.5c-3.268,0-6.636.459-9.338,2.671L7.552,60.364a1.547,1.547,0,0,0,1.973,2.382L20.74,53.553c1.874-1.534,4.4-1.973,7.388-1.973H50.8a3.2,3.2,0,0,1-.265,2.6,3.006,3.006,0,0,1-2.19,1.733q-.072-.015-.144-.024h-14.7a1.54,1.54,0,1,0,0,3.081H48.2v-.024c2.257.133,4.046-1.458,5.054-3.321a5.957,5.957,0,0,0-.168-6.5,1.54,1.54,0,0,0-1.227-.626Z" transform="translate(-6.991 -5.998)" fill="#7ecc3c"/>
    </g>
    <g id="Group_836" data-name="Group 836" transform="translate(-824.834 15388.895) rotate(180)">
      <g id="Group_829" data-name="Group 829" transform="translate(-1607.622 12364.418)">
        <path id="Path_1738" data-name="Path 1738" d="M99.5,152.156c-.374,3.049-.5,4.985-1.227,6.235-1.193,1.553-3.261,1.7-7.06,2.052,3.737.452,5.758.55,6.955,1.973.894,1.26,1.045,3.208,1.332,6.314.487-4.027.564-6.061,2.33-7.219,1.256-.606,3.129-.739,5.957-1.068-3.507-.43-5.541-.529-6.753-1.6C100.01,157.622,99.9,155.594,99.5,152.156Z" fill="#7ecc3c"/>
      </g>
      <g id="Group_831" data-name="Group 831" transform="translate(-1727.622 12336.418)">
        <path id="Path_1738-2" data-name="Path 1738" d="M99.5,152.156c-.374,3.049-.5,4.985-1.227,6.235-1.193,1.553-3.261,1.7-7.06,2.052,3.737.452,5.758.55,6.955,1.973.894,1.26,1.045,3.208,1.332,6.314.487-4.027.564-6.061,2.33-7.219,1.256-.606,3.129-.739,5.957-1.068-3.507-.43-5.541-.529-6.753-1.6C100.01,157.622,99.9,155.594,99.5,152.156Z" fill="#7ecc3c"/>
      </g>
      <g id="Group_833" data-name="Group 833" transform="translate(-1709.387 12304.652)">
        <path id="Path_1738-3" data-name="Path 1738" d="M96.266,152.156c-.228,1.859-.3,3.039-.748,3.8-.727.947-1.988,1.037-4.3,1.251,2.279.276,3.51.335,4.24,1.2.545.768.637,1.956.812,3.849.3-2.455.344-3.7,1.42-4.4a13.129,13.129,0,0,1,3.632-.651c-2.138-.262-3.378-.322-4.117-.975C96.576,155.488,96.51,154.252,96.266,152.156Z" transform="translate(0 0)" fill="#7ecc3c"/>
      </g>
      <g id="Group_830" data-name="Group 830" transform="translate(-1623.663 12307.376)">
        <path id="Path_1738-4" data-name="Path 1738" d="M95.542,152.156a9.755,9.755,0,0,1-.641,3.257c-.623.811-1.7.889-3.688,1.072,1.952.236,3.008.287,3.633,1.031.467.658.546,1.676.7,3.3.255-2.1.294-3.166,1.217-3.771a11.25,11.25,0,0,1,3.112-.558c-1.832-.224-2.895-.276-3.527-.836C95.809,155.011,95.752,153.952,95.542,152.156Z" fill="#7ecc3c"/>
      </g>
      <g id="Group_834" data-name="Group 834" transform="translate(-1713.715 12384.273)">
        <path id="Path_1738-5" data-name="Path 1738" d="M95.542,152.156a9.755,9.755,0,0,1-.641,3.257c-.623.811-1.7.889-3.688,1.072,1.952.236,3.008.287,3.633,1.031.467.658.546,1.676.7,3.3.255-2.1.294-3.166,1.217-3.771a11.25,11.25,0,0,1,3.112-.558c-1.832-.224-2.895-.276-3.527-.836C95.809,155.011,95.752,153.952,95.542,152.156Z" fill="#7ecc3c"/>
      </g>
    </g>
  </g>
</svg>
