<svg id="Group_900" data-name="Group 900" xmlns="http://www.w3.org/2000/svg" width="51.619" height="51.619" viewBox="0 0 51.619 51.619">
  <path id="Path_1782" data-name="Path 1782" d="M48.828,21a5.828,5.828,0,1,0,5.828,5.828A5.835,5.835,0,0,0,48.828,21Zm0,9.991a4.163,4.163,0,1,1,4.163-4.163A4.168,4.168,0,0,1,48.828,30.991Z" transform="translate(-8.032 -4.349)" fill="#7ecc3c"/>
  <path id="Path_1783" data-name="Path 1783" d="M52.619,20.331l-2.011-.5,1.067-1.778L47.222,13.6l-1.777,1.067-.5-2.011H42.973L37.145,6.828h-9.5V8.493h-3.33v-5a2.5,2.5,0,0,0-2.5-2.5H3.5A2.5,2.5,0,0,0,1,3.5V21.814a2.5,2.5,0,0,0,2.5,2.5H21.814a2.5,2.5,0,0,0,2.5-2.5V13.489h3.33v1.665h4.673l1.309,1.191-1.708,1.708,1.067,1.778-2.011.5v6.3l2.011.5-1.067,1.778,3.734,3.733-.723,3.371a4.859,4.859,0,0,0-.626-.044H1V52.619H52.619V45.959H50.843L48.815,31.766l2.859-2.858-1.067-1.778,2.011-.5ZM9.326,2.665h6.661V6H9.326ZM22.647,21.814a.833.833,0,0,1-.833.833H3.5a.833.833,0,0,1-.833-.833V3.5A.833.833,0,0,1,3.5,2.665H7.661v5h9.991v-5h4.163a.833.833,0,0,1,.833.833v5h-2.5a2.5,2.5,0,0,0,0,5h2.5Zm-2.5-9.991a.833.833,0,0,1,0-1.665h7.493v1.665ZM32.96,13.489H29.307v-5h7.148l4.163,4.163H38.648l-.5,2.011L36.369,13.6,34.8,15.165Zm4.673,27.475a3.33,3.33,0,1,1-3.33-3.33A3.334,3.334,0,0,1,37.633,40.963Zm-29.972,0a3.33,3.33,0,1,1,3.33,3.33A3.334,3.334,0,0,1,7.661,40.963Zm7.044-3.33h4.23a4.965,4.965,0,0,0,0,6.661H14.7a4.966,4.966,0,0,0,0-6.661Zm4.612,3.33a3.33,3.33,0,1,1,3.33,3.33A3.334,3.334,0,0,1,19.316,40.963Zm7.044-3.33h4.23a4.965,4.965,0,0,0,0,6.661H26.36a4.966,4.966,0,0,0,0-6.661Zm-23.695,0H7.278a4.966,4.966,0,0,0,0,6.661H2.665Zm0,13.321v-5H32.638v5Zm48.289,0H34.3v-3.33H50.954Zm-1.793-5H34.3A4.991,4.991,0,0,0,36.527,36.5l.8-3.712.823-.494.5,2.011h6.3l.5-2.011,1.777,1.067.122-.121Zm1.793-20.632-1.623.405-.445.171-.388.948,1.079,1.8-2.613,2.613-1.8-1.079-1.016.413-.51,2.041H39.948l-.405-1.623-.169-.445-.951-.386-1.8,1.079-2.613-2.613,1.079-1.8-.416-1.016-2.039-.509V21.632l2.036-.509.419-1.016-1.079-1.8L36.626,15.7l1.8,1.079,1.016-.413.51-2.041h3.695l.405,1.623.169.445.951.386,1.8-1.079,2.613,2.613-1.079,1.8.419,1.016,2.036.509Z" transform="translate(-1 -1)" fill="#7ecc3c"/>
  <rect id="Rectangle_107" data-name="Rectangle 107" width="1.665" height="1.665" transform="matrix(0.99, -0.142, 0.142, 0.99, 43.581, 38.383)" fill="#7ecc3c"/>
  <rect id="Rectangle_108" data-name="Rectangle 108" width="1.665" height="1.665" transform="matrix(0.99, -0.142, 0.142, 0.99, 43.11, 35.086)" fill="#7ecc3c"/>
  <rect id="Rectangle_109" data-name="Rectangle 109" width="1.665" height="1.665" transform="matrix(0.99, -0.142, 0.142, 0.99, 44.052, 41.68)" fill="#7ecc3c"/>
  <rect id="Rectangle_110" data-name="Rectangle 110" width="1.872" height="3.744" transform="translate(2.024 18.872)" fill="#7ecc3c"/>
  <rect id="Rectangle_111" data-name="Rectangle 111" width="3.744" height="3.744" transform="translate(5.768 18.872)" fill="#7ecc3c"/>
  <rect id="Rectangle_112" data-name="Rectangle 112" width="3.744" height="3.744" transform="translate(9.512 18.872)" fill="#7ecc3c"/>
  <rect id="Rectangle_113" data-name="Rectangle 113" width="11.232" height="1.872" transform="translate(2.024 15.128)" fill="#7ecc3c"/>
  <rect id="Rectangle_114" data-name="Rectangle 114" width="3.744" height="1.872" transform="translate(5.768 46.952)" fill="#7ecc3c"/>
  <rect id="Rectangle_115" data-name="Rectangle 115" width="1.872" height="1.872" transform="translate(2.024 46.952)" fill="#7ecc3c"/>
  <rect id="Rectangle_116" data-name="Rectangle 116" width="3.744" height="1.872" transform="translate(9.512 46.952)" fill="#7ecc3c"/>
  <rect id="Rectangle_117" data-name="Rectangle 117" width="3.744" height="3.744" transform="translate(31.976 37.592)" fill="#7ecc3c"/>
  <rect id="Rectangle_118" data-name="Rectangle 118" height="3.744" transform="translate(22.616 37.592)" fill="#7ecc3c"/>
  <rect id="Rectangle_119" data-name="Rectangle 119" width="3.744" height="3.744" transform="translate(9.512 37.592)" fill="#7ecc3c"/>
</svg>
