<svg xmlns="http://www.w3.org/2000/svg" width="53.105" height="51.392" viewBox="0 0 53.105 51.392">
  <g id="Group_901" data-name="Group 901" transform="translate(-1 -3)">
    <path id="Path_1784" data-name="Path 1784" d="M48.965,54.7v1.713H36.5a12.842,12.842,0,0,0,6.429-10.425,2.565,2.565,0,1,0-1.712-.022,11.139,11.139,0,0,1-11.1,10.447H24.983a11.139,11.139,0,0,1-11.1-10.447,2.574,2.574,0,1,0-1.712.022A12.844,12.844,0,0,0,18.6,56.417H6.139V54.7H1v5.139H6.139V58.131H48.965v1.713H54.1V54.7Z" transform="translate(0 -5.452)" fill="#7ecc3c"/>
    <path id="Path_1785" data-name="Path 1785" d="M23.106,32.258a6.715,6.715,0,0,1,2.11,4.081h1.72l-.792-12.675-.254-.716a.43.43,0,0,0-.251-.242.449.449,0,0,0-.368-.015,2.1,2.1,0,0,1-2.389-.409l-2.391-2.391a2.1,2.1,0,0,1-.41-2.389.428.428,0,0,0-.007-.35.457.457,0,0,0-.249-.27,2.1,2.1,0,0,1-1.4-1.978V11.524a2.1,2.1,0,0,1,1.4-1.979.443.443,0,0,0,.242-.252.448.448,0,0,0,.015-.365,2.063,2.063,0,0,1-.14-.409,13.422,13.422,0,0,0-.592,20.3Z" transform="translate(-2.009 -0.792)" fill="#7ecc3c"/>
    <path id="Path_1786" data-name="Path 1786" d="M35.965,52.263a6.614,6.614,0,0,1-2.193-4.925V47H28.633v.338a6.611,6.611,0,0,1-2.193,4.925l3.906,4.555V48.713h1.713v8.105Z" transform="translate(-3.65 -6.313)" fill="#7ecc3c"/>
    <path id="Path_1787" data-name="Path 1787" d="M21.258,14.476a2.21,2.21,0,0,1,1.231,2.975.388.388,0,0,0,.076.439l2.391,2.391a.39.39,0,0,0,.439.075,2.21,2.21,0,0,1,2.974,1.233l.09.257h3.928l.09-.258a2.21,2.21,0,0,1,2.973-1.232.387.387,0,0,0,.44-.075l2.391-2.391a.389.389,0,0,0,.075-.441,2.208,2.208,0,0,1,1.232-2.972.387.387,0,0,0,.256-.363V10.732a.388.388,0,0,0-.258-.364,2.21,2.21,0,0,1-1.231-2.975.388.388,0,0,0-.076-.439L35.888,4.564a.388.388,0,0,0-.439-.075,2.141,2.141,0,0,1-1.749.028,2.156,2.156,0,0,1-1.225-1.261A.385.385,0,0,0,32.113,3H28.732a.39.39,0,0,0-.365.258,2.209,2.209,0,0,1-2.972,1.232.384.384,0,0,0-.44.075L22.564,6.955a.389.389,0,0,0-.075.441,2.208,2.208,0,0,1-1.232,2.972.384.384,0,0,0-.257.362v3.381A.386.386,0,0,0,21.258,14.476Zm9.164-8.05a6,6,0,1,1-6,6A6,6,0,0,1,30.422,6.426Z" transform="translate(-2.869)" fill="#7ecc3c"/>
    <path id="Path_1788" data-name="Path 1788" d="M33.38,27H30.064l.749,11.991h1.818Z" transform="translate(-4.17 -3.443)" fill="#7ecc3c"/>
    <path id="Path_1789" data-name="Path 1789" d="M36.991,43.857A.857.857,0,0,0,36.135,43H25.857a.857.857,0,1,0,0,1.713H36.135A.857.857,0,0,0,36.991,43.857Z" transform="translate(-3.443 -5.739)" fill="#7ecc3c"/>
    <path id="Path_1790" data-name="Path 1790" d="M42.174,9.544a2.1,2.1,0,0,1,1.4,1.979V14.9a2.1,2.1,0,0,1-1.4,1.979.443.443,0,0,0-.242.252.448.448,0,0,0-.015.365,2.105,2.105,0,0,1-.409,2.391l-2.391,2.391a2.1,2.1,0,0,1-2.39.409.433.433,0,0,0-.35.008.448.448,0,0,0-.268.248l-.254.717L35.064,36.34h1.72a6.72,6.72,0,0,1,2.11-4.081l3.754-3.442a13.422,13.422,0,0,0-.591-20.3,2.066,2.066,0,0,1-.139.406.428.428,0,0,0,.007.35A.452.452,0,0,0,42.174,9.544Z" transform="translate(-4.887 -0.792)" fill="#7ecc3c"/>
    <ellipse id="Ellipse_7" data-name="Ellipse 7" cx="2.804" cy="1.869" rx="2.804" ry="1.869" transform="translate(25.3 10.477)" fill="#7ecc3c"/>
    <ellipse id="Ellipse_8" data-name="Ellipse 8" cx="1.869" cy="2.804" rx="1.869" ry="2.804" transform="translate(47.731 14.215)" fill="#7ecc3c"/>
    <rect id="Rectangle_120" data-name="Rectangle 120" width="1.869" height="1.869" transform="translate(49.6 31.039)" fill="#7ecc3c"/>
    <rect id="Rectangle_121" data-name="Rectangle 121" width="1.869" height="1.869" transform="translate(49.6 27.3)" fill="#7ecc3c"/>
    <rect id="Rectangle_122" data-name="Rectangle 122" width="1.869" height="1.869" transform="translate(49.6 21.692)" fill="#7ecc3c"/>
    <rect id="Rectangle_123" data-name="Rectangle 123" width="1.869" height="1.869" transform="translate(49.6 23.562)" fill="#7ecc3c"/>
    <circle id="Ellipse_9" data-name="Ellipse 9" cx="2.804" cy="2.804" r="2.804" transform="translate(2.869 14.215)" fill="#7ecc3c"/>
    <rect id="Rectangle_124" data-name="Rectangle 124" width="1.869" height="1.869" transform="translate(4.738 27.3)" fill="#7ecc3c"/>
    <rect id="Rectangle_125" data-name="Rectangle 125" width="1.869" height="1.869" transform="translate(4.738 31.039)" fill="#7ecc3c"/>
    <rect id="Rectangle_126" data-name="Rectangle 126" width="1.869" height="1.869" transform="translate(4.738 21.692)" fill="#7ecc3c"/>
    <rect id="Rectangle_127" data-name="Rectangle 127" width="1.869" height="1.869" transform="translate(4.738 23.562)" fill="#7ecc3c"/>
  </g>
</svg>
