<svg xmlns="http://www.w3.org/2000/svg" width="51.438" height="51.438" viewBox="0 0 51.438 51.438">
  <g id="Group_1330" data-name="Group 1330" transform="translate(-1 -1)">
    <path id="Path_1764" data-name="Path 1764" d="M51.609,1H48.29a.83.83,0,0,0-.83.83v.83H32.527V1.83A.83.83,0,0,0,31.7,1H21.741a.83.83,0,0,0-.83.83v.83H5.978V1.83A.83.83,0,0,0,5.148,1H1.83A.83.83,0,0,0,1,1.83V8.467a.83.83,0,0,0,.83.83H5.148a.83.83,0,0,0,.83-.83v-.83H20.912v.83a.83.83,0,0,0,.83.83h.83V20.912h-.83a.83.83,0,0,0-.83.83V25.06a.83.83,0,0,0,.83.83h.83v2.489a.83.83,0,0,0,.83.83h.83V31.7a.827.827,0,0,0,.243.587l1.659,1.659a.829.829,0,0,0,1.173,0l1.659-1.659a.827.827,0,0,0,.243-.587V29.208h.83a.83.83,0,0,0,.83-.83V25.89h.83a.83.83,0,0,0,.83-.83V21.741a.83.83,0,0,0-.83-.83h-.83V19.252h4.148A2.492,2.492,0,0,0,37.5,16.763a.831.831,0,0,1,.83-.83H48.29a.83.83,0,0,0,.83-.83V10.126a.83.83,0,0,0-.83-.83H38.334a2.492,2.492,0,0,0-2.489,2.489.831.831,0,0,1-.83.83H30.867V9.3h.83a.83.83,0,0,0,.83-.83v-.83H47.461v.83a.83.83,0,0,0,.83.83h3.319a.83.83,0,0,0,.83-.83V1.83A.83.83,0,0,0,51.609,1ZM4.319,7.637H2.659V2.659H4.319ZM5.978,5.978V4.319H20.912V5.978ZM27.549,31.354l-.83.83-.83-.83V29.208h1.659Zm1.659-3.8H24.23V25.89h4.978Zm1.659-3.319h-8.3V22.571h8.3Zm-1.659-3.319H27.549V19.252h1.659Zm-1.659-6.637h1.659v.83H27.549Zm0,2.489h1.659v.83H27.549Zm7.467.83H30.867v-.83h4.148a2.467,2.467,0,0,0,.845-.158c0,.053-.016.1-.016.158A.831.831,0,0,1,35.016,17.593Zm3.319-3.319a2.467,2.467,0,0,0-.845.158c0-.053.016-.1.016-.158a.831.831,0,0,1,.83-.83h9.126v.83Zm0-3.319h9.126v.83H38.334a2.467,2.467,0,0,0-.845.158c0-.053.016-.1.016-.158A.831.831,0,0,1,38.334,10.956Zm-3.319,3.319a2.467,2.467,0,0,0,.845-.158c0,.053-.016.1-.016.158a.831.831,0,0,1-.83.83H30.867v-.83Zm-5.808-1.659H27.549V10.956H25.89v9.956H24.23V9.3h4.978Zm1.659-4.978h-8.3V2.659h8.3Zm1.659-1.659V4.319H47.461V5.978ZM50.779,7.637H49.12V2.659h1.659Z" transform="translate(0 0)" fill="#7ecc3c"/>
    <path id="Path_1765" data-name="Path 1765" d="M44.712,50.547,28.948,43.08a.831.831,0,0,0-.71,0L12.475,50.547a.83.83,0,0,0,0,1.5l15.763,7.467a.831.831,0,0,0,.71,0l15.763-7.467a.83.83,0,0,0,0-1.5Zm-16.118-5.8,5.3,2.51-5.3,2.51-5.3-2.51Zm-7.236,3.428,5.3,2.51-6.589,3.121-5.3-2.51Zm7.236,9.67L22,54.725,28.593,51.6l6.589,3.121Zm8.527-4.04-6.589-3.121,5.3-2.51L42.418,51.3Z" transform="translate(-1.874 -7.155)" fill="#7ecc3c"/>
  </g>
</svg>
