<svg xmlns="http://www.w3.org/2000/svg" width="51.384" height="51.392" viewBox="0 0 51.384 51.392">
  <g id="Group_1327" data-name="Group 1327" transform="translate(-1657.189 -6021)">
    <path id="Path_1770" data-name="Path 1770" d="M37.67,47.255a1.9,1.9,0,0,1,.809-1.756c.336-.23.684-.441,1.02-.671.368-.257.342-.526-.013-.77-.335-.23-.691-.441-1.02-.678a1.751,1.751,0,0,1-.684-2.1c.033-.1.072-.191.105-.283.618-1.763,1.27-2.414,3.368-1.809.691.2.868,0,.743-.7-.02-.118-.039-.243-.066-.362a2.56,2.56,0,0,1,2.941-3.23,2.9,2.9,0,0,1,1.27.743,3.423,3.423,0,0,1,.546.809c.447.678.7.7,1.092.02,1.132-2.013,2.02-1.849,3.717-1.066a1.824,1.824,0,0,1,1.158,2.27c-.066.342-.158.678-.217,1.02-.072.4.138.592.52.539.4-.053.8-.171,1.2-.243a1.807,1.807,0,0,1,2,.96c.066.125.112.263.178.388.9,1.8.513,2.671-1.053,3.526-.776.421-.75.678-.013,1.151.224.145.46.27.671.428a2.319,2.319,0,0,1,.5.447c.842,1.145.138,2.145-.355,3.131a1.7,1.7,0,0,1-2.039.855c-.362-.072-.717-.171-1.079-.224-.395-.059-.585.132-.52.533.053.3.132.6.191.895a2.538,2.538,0,0,1,.1.664c-.059,1.474-1.263,1.763-2.316,2.164a1.745,1.745,0,0,1-2.105-.684c-.2-.283-.368-.585-.566-.875-.388-.559-.612-.566-1-.013-.2.283-.362.592-.566.875a1.758,1.758,0,0,1-2.2.664c-.151-.059-.3-.132-.454-.178-1.493-.474-2.131-1.428-1.579-3.006a2.448,2.448,0,0,0,.105-.539c.033-.362-.132-.559-.5-.5s-.717.151-1.079.224a1.8,1.8,0,0,1-2.2-1.092C38.012,48.209,37.808,47.61,37.67,47.255Zm5.789-8.611c-.013,1.342-.757,2.072-1.875,2.02-.46-.026-.921-.184-1.381-.23a.745.745,0,0,0-.579.164c-.71.875-.612,1.447.322,2.033l.053.033c1.6,1.033,1.612,2.487.026,3.546-.086.059-.171.112-.257.164-.763.467-.776.493-.434,1.3.053.132.125.257.171.395a.538.538,0,0,0,.75.4,7.5,7.5,0,0,1,1.263-.237,1.71,1.71,0,0,1,1.954,1.822,3.923,3.923,0,0,1-.1.783c-.25,1.217-.428,1.059.868,1.618a.655.655,0,0,0,.987-.349,5.473,5.473,0,0,1,.493-.77,1.8,1.8,0,0,1,3.046-.013,5.255,5.255,0,0,1,.342.507c.546.875.546.875,1.474.48.092-.039.184-.092.283-.125.4-.112.487-.368.4-.75a7.684,7.684,0,0,1-.237-1.381,1.714,1.714,0,0,1,1.888-1.842,4.5,4.5,0,0,1,.783.118c1.138.257,1.026.382,1.526-.835a.569.569,0,0,1,.046-.112A.591.591,0,0,0,55,46.512a6.451,6.451,0,0,1-1.1-.77,1.7,1.7,0,0,1,.007-2.631,4.422,4.422,0,0,1,.684-.513c.9-.572.9-.572.487-1.572-.039-.092-.053-.23-.118-.276a1.5,1.5,0,0,0-.678-.322c-.4.007-.8.171-1.2.211a1.754,1.754,0,0,1-2.046-2.079c.039-.382.178-.757.217-1.138a.8.8,0,0,0-.145-.592,1.177,1.177,0,0,0-2.039.3c-.013.02-.02.033-.033.053-1.059,1.625-2.552,1.638-3.572-.007-.684-1.105-.559-.993-1.7-.533a.8.8,0,0,1-.112.046c-.428.118-.513.4-.414.8C43.327,37.946,43.413,38.407,43.459,38.644Z" transform="translate(1635.65 6002.145)" fill="#7ecc3c"/>
    <path id="Path_1771" data-name="Path 1771" d="M46.21,47.354a3.95,3.95,0,1,1,3.954,3.973A3.971,3.971,0,0,1,46.21,47.354Zm6.493-.033A2.546,2.546,0,1,0,50.216,49.9,2.566,2.566,0,0,0,52.7,47.321Z" transform="translate(1632.728 5999.224)" fill="#7ecc3c"/>
    <path id="Path_1772" data-name="Path 1772" d="M43.422,56.535h-.079l-.092-.007a.885.885,0,0,1,.158-1.763l.092.007a.885.885,0,0,1,.809.954A.9.9,0,0,1,43.422,56.535Zm4.5-.355a.885.885,0,0,1-.211-1.743l.086-.02a.885.885,0,1,1,.428,1.717l-.086.02A1.222,1.222,0,0,1,47.922,56.179Zm-8.986-.763a.772.772,0,0,1-.335-.072l-.1-.046a.883.883,0,0,1,.737-1.605.912.912,0,0,1,.487,1.178A.87.87,0,0,1,38.936,55.416Zm13.236-1.092a.881.881,0,0,1-.743-.395.863.863,0,0,1,.237-1.21l.072-.046a.884.884,0,0,1,.967,1.48l-.039.026A.882.882,0,0,1,52.171,54.324ZM35.094,52.9a.863.863,0,0,1-.592-.23s-.039-.033-.039-.039a.907.907,0,0,1-.072-1.263.862.862,0,0,1,1.23-.072l.066.059a.891.891,0,0,1,.066,1.25A.877.877,0,0,1,35.094,52.9Zm20.466-1.651a.864.864,0,0,1-.546-.191.888.888,0,0,1-.151-1.243l.053-.072a.886.886,0,1,1,1.395,1.092l-.059.072A.856.856,0,0,1,55.559,51.246Zm-23.347-2a.818.818,0,0,1-.73-.434l-.046-.086A.884.884,0,0,1,33,47.891a.926.926,0,0,1-.336,1.237A.949.949,0,0,1,32.212,49.246ZM57.77,47.187a.812.812,0,0,1-.276-.046.869.869,0,0,1-.559-1.105l.033-.086a.886.886,0,1,1,1.678.572l-.013.046A.923.923,0,0,1,57.77,47.187ZM30.732,44.878a.837.837,0,0,1-.849-.7l-.02-.1a.886.886,0,1,1,1.75-.276.912.912,0,0,1-.71,1.059A.779.779,0,0,1,30.732,44.878Zm27.827-2.21h-.013a.887.887,0,0,1-.875-.895v-.132a.885.885,0,1,1,1.77-.007v.158A.884.884,0,0,1,58.559,42.667Zm-27.82-2.395a.891.891,0,0,1-.132-.013.861.861,0,0,1-.743-.974l.02-.105a.888.888,0,0,1,1.75.3A.933.933,0,0,1,30.739,40.273Zm27.077-2.2a.9.9,0,0,1-.842-.605.923.923,0,0,1,.533-1.164.847.847,0,0,1,1.112.507l.033.1a.883.883,0,0,1-.559,1.118A.812.812,0,0,1,57.816,38.069Zm-25.6-2.158a.876.876,0,0,1-.776-1.263l.053-.092a.885.885,0,0,1,1.546.862A.947.947,0,0,1,32.219,35.911Zm23.413-1.9a.878.878,0,0,1-.7-.342l-.053-.072A.886.886,0,0,1,56.276,32.5l.053.072a.888.888,0,0,1-.151,1.243A.864.864,0,0,1,55.632,34.01Zm-20.584-1.7a.882.882,0,0,1-.605-1.526s.039-.033.039-.039a.906.906,0,0,1,1.263.033A.866.866,0,0,1,35.719,32l-.066.059A.867.867,0,0,1,35.048,32.306Zm17.2-1.421a.882.882,0,0,1-.5-.158.913.913,0,0,1-.289-1.243.862.862,0,0,1,1.2-.283l.1.066a.88.88,0,0,1,.224,1.23A.9.9,0,0,1,52.25,30.885ZM38.9,29.774a.887.887,0,0,1-.355-1.7l.079-.033a.886.886,0,0,1,.724,1.618l-.086.039A.91.91,0,0,1,38.9,29.774Zm9.137-.757a.876.876,0,0,1-.224-.033.921.921,0,0,1-.684-1.085.845.845,0,0,1,1.033-.651l.1.026a.886.886,0,0,1-.224,1.743Zm-4.6-.388a.915.915,0,0,1-.921-.809.85.85,0,0,1,.763-.954l.1-.007a.884.884,0,0,1,.132,1.763A.247.247,0,0,1,43.435,28.629Z" transform="translate(1638.325 6004.884)" fill="#7ecc3c"/>
    <path id="Path_1773" data-name="Path 1773" d="M49.976,19.075A4.273,4.273,0,1,1,54.245,14.8,4.279,4.279,0,0,1,49.976,19.075Zm0-6.776a2.506,2.506,0,1,0,2.506,2.506A2.51,2.51,0,0,0,49.976,12.3Z" transform="translate(1632.902 6010.471)" fill="#7ecc3c"/>
    <path id="Path_1774" data-name="Path 1774" d="M50,84.205a4.273,4.273,0,1,1,4.269-4.276A4.279,4.279,0,0,1,50,84.205Zm0-6.776A2.506,2.506,0,1,0,52.5,79.936,2.51,2.51,0,0,0,50,77.43Z" transform="translate(1632.896 5988.187)" fill="#7ecc3c"/>
    <path id="Path_1775" data-name="Path 1775" d="M82.546,51.465a4.273,4.273,0,1,1,4.269-4.276A4.279,4.279,0,0,1,82.546,51.465Zm0-6.776A2.506,2.506,0,1,0,85.052,47.2,2.51,2.51,0,0,0,82.546,44.69Z" transform="translate(1621.758 5999.388)" fill="#7ecc3c"/>
    <path id="Path_1776" data-name="Path 1776" d="M17.426,52.875A4.273,4.273,0,1,1,21.7,48.6,4.279,4.279,0,0,1,17.426,52.875ZM17.419,46.1a2.506,2.506,0,1,0,2.506,2.506A2.51,2.51,0,0,0,17.419,46.1Z" transform="translate(1644.039 5998.906)" fill="#7ecc3c"/>
    <path id="Path_1777" data-name="Path 1777" d="M72.519,27.955a4.274,4.274,0,1,1,3.026-7.3h0a4.273,4.273,0,0,1-3.026,7.3Zm-.007-6.776a2.5,2.5,0,1,0,1.776.73A2.5,2.5,0,0,0,72.512,21.179Z" transform="translate(1625.187 6007.433)" fill="#7ecc3c"/>
    <path id="Path_1778" data-name="Path 1778" d="M27.46,75.006a4.274,4.274,0,1,1,3.026-7.3h0a4.273,4.273,0,0,1-3.026,7.3Zm0-6.776a2.5,2.5,0,1,0,1.77.73A2.5,2.5,0,0,0,27.46,68.23Z" transform="translate(1640.603 5991.333)" fill="#7ecc3c"/>
    <path id="Path_1779" data-name="Path 1779" d="M73.51,75.245A4.273,4.273,0,1,1,76.536,74,4.242,4.242,0,0,1,73.51,75.245Zm0-6.776a2.5,2.5,0,1,0,1.763.73A2.463,2.463,0,0,0,73.51,68.469Z" transform="translate(1624.847 5991.251)" fill="#7ecc3c"/>
    <path id="Path_1780" data-name="Path 1780" d="M26.469,30.195a4.217,4.217,0,0,1-3.02-1.25,4.275,4.275,0,1,1,7.3-3.026,4.217,4.217,0,0,1-1.25,3.02h0A4.272,4.272,0,0,1,26.469,30.195Zm-.007-6.776a2.5,2.5,0,0,0-1.77,4.269,2.559,2.559,0,0,0,3.539,0h0a2.5,2.5,0,0,0-.007-3.539A2.463,2.463,0,0,0,26.462,23.419Z" transform="translate(1640.943 6006.666)" fill="#7ecc3c"/>
  </g>
</svg>
