<svg xmlns="http://www.w3.org/2000/svg" width="51.372" height="50.825" viewBox="0 0 51.372 50.825">
  <g id="Group_1329" data-name="Group 1329" transform="translate(-1738.75 -5841.65)">
    <path id="Path_1781" data-name="Path 1781" d="M-196.945,355.3h-49a1.156,1.156,0,0,0-1.156,1.156,1.119,1.119,0,0,0,1.156,1.156h1.826v29.825a2.857,2.857,0,0,0,2.861,2.861h39.868a2.857,2.857,0,0,0,2.861-2.861V357.613h1.643a1.156,1.156,0,0,0,1.156-1.156A1.208,1.208,0,0,0-196.945,355.3Zm-3.9,32.077a.545.545,0,0,1-.548.548h-39.868a.546.546,0,0,1-.548-.548V357.552h41.025v29.825Zm-11.687,12.6a1.14,1.14,0,0,1,0,1.583,1.008,1.008,0,0,1-.791.3,1.157,1.157,0,0,1-.791-.3l-5.6-5.6v9.008a1.156,1.156,0,0,1-1.156,1.156,1.156,1.156,0,0,1-1.156-1.156V395.96l-5.661,5.661a1.008,1.008,0,0,1-.791.3,1.157,1.157,0,0,1-.791-.3,1.139,1.139,0,0,1,0-1.583l5.661-5.661h-2.009a1.156,1.156,0,0,1-1.156-1.156,1.156,1.156,0,0,1,1.156-1.156h9.374a1.156,1.156,0,0,1,1.157,1.156,1.156,1.156,0,0,1-1.157,1.156h-1.887Zm-14.121-28.364h5.661a1.156,1.156,0,0,0,1.157-1.156,6.8,6.8,0,0,0-1.7-4.5,6.833,6.833,0,0,0-5.113-2.313A1.156,1.156,0,0,0-227.8,364.8v5.661A1.243,1.243,0,0,0-226.648,371.613Zm3.409-4.139a4.309,4.309,0,0,1,.974,1.887h-3.226v-3.287A4.872,4.872,0,0,1-223.24,367.474Zm-6.635,14.365a8.261,8.261,0,0,0,8.217-8.217,1.156,1.156,0,0,0-1.156-1.156h-5.965V366.5a1.156,1.156,0,0,0-1.156-1.156,8.261,8.261,0,0,0-8.217,8.217A8.326,8.326,0,0,0-229.874,381.838Zm-1.156-14.06v5.843a1.156,1.156,0,0,0,1.156,1.156h5.843a5.947,5.947,0,0,1-5.843,4.809,5.975,5.975,0,0,1-5.965-5.965A6,6,0,0,1-231.031,367.778Zm13.939-2.982a1.156,1.156,0,0,1,1.156-1.156h9.5a1.156,1.156,0,0,1,1.156,1.156,1.119,1.119,0,0,1-1.156,1.157H-216A1.144,1.144,0,0,1-217.092,364.8Zm0,3.956a1.156,1.156,0,0,1,1.156-1.156h9.5a1.156,1.156,0,0,1,1.156,1.156,1.119,1.119,0,0,1-1.156,1.156H-216A1.106,1.106,0,0,1-217.092,368.752Zm0,4.017a1.156,1.156,0,0,1,1.156-1.156h6.756a1.156,1.156,0,0,1,1.156,1.156,1.119,1.119,0,0,1-1.156,1.156H-216A1.187,1.187,0,0,1-217.092,372.769Zm0,3.956a1.156,1.156,0,0,1,1.156-1.156h9.5a1.156,1.156,0,0,1,1.156,1.156,1.156,1.156,0,0,1-1.156,1.156H-216A1.144,1.144,0,0,1-217.092,376.725Zm0,4.017a1.156,1.156,0,0,1,1.156-1.156h6.756a1.156,1.156,0,0,1,1.156,1.156,1.156,1.156,0,0,1-1.156,1.156H-216A1.187,1.187,0,0,1-217.092,380.743Z" transform="translate(1985.85 5486.35)" fill="#7ecc3c"/>
  </g>
</svg>
