<svg xmlns="http://www.w3.org/2000/svg" width="51.392" height="51.392" viewBox="0 0 51.392 51.392">
  <g id="Group_1328" data-name="Group 1328" transform="translate(-1262 -5792)">
    <path id="Path_1740" data-name="Path 1740" d="M76.6,73.8a2.8,2.8,0,1,0,2.8,2.8A2.879,2.879,0,0,0,76.6,73.8Zm0,4.34a1.6,1.6,0,1,1,1.6-1.6A1.633,1.633,0,0,1,76.6,78.14Z" transform="translate(1227.486 5757.487)" fill="#7ecc3c"/>
    <path id="Path_1741" data-name="Path 1741" d="M65.1,73.8a2.8,2.8,0,1,0,2.8,2.8A2.8,2.8,0,0,0,65.1,73.8Z" transform="translate(1232.419 5757.487)" fill="#7ecc3c"/>
    <path id="Path_1742" data-name="Path 1742" d="M88,73.8a2.8,2.8,0,1,0,2.8,2.8A2.8,2.8,0,0,0,88,73.8Z" transform="translate(1222.596 5757.487)" fill="#7ecc3c"/>
    <path id="Path_1743" data-name="Path 1743" d="M53.6,79.3a2.8,2.8,0,1,0-2.8-2.8A2.8,2.8,0,0,0,53.6,79.3Zm0-4.34a1.6,1.6,0,1,1,0,3.2,1.6,1.6,0,0,1,0-3.2Z" transform="translate(1237.353 5757.529)" fill="#7ecc3c"/>
    <path id="Path_1744" data-name="Path 1744" d="M42.2,73.8A2.8,2.8,0,1,0,45,76.6,2.8,2.8,0,0,0,42.2,73.8Z" transform="translate(1242.243 5757.487)" fill="#7ecc3c"/>
    <path id="Path_1745" data-name="Path 1745" d="M30.7,73.8a2.8,2.8,0,1,0,2.8,2.8A2.8,2.8,0,0,0,30.7,73.8Zm0,4.34a1.6,1.6,0,1,1,1.6-1.6A1.6,1.6,0,0,1,30.7,78.14Z" transform="translate(1247.176 5757.487)" fill="#7ecc3c"/>
    <path id="Path_1746" data-name="Path 1746" d="M7.8,73.8a2.8,2.8,0,1,0,2.8,2.8A2.8,2.8,0,0,0,7.8,73.8Zm0,4.34a1.6,1.6,0,1,1,0-3.2,1.561,1.561,0,0,1,1.6,1.6A1.633,1.633,0,0,1,7.8,78.14Z" transform="translate(1257 5757.487)" fill="#7ecc3c"/>
    <path id="Path_1747" data-name="Path 1747" d="M19.2,79.3a2.8,2.8,0,1,0-2.8-2.8A2.879,2.879,0,0,0,19.2,79.3Z" transform="translate(1252.109 5757.529)" fill="#7ecc3c"/>
    <path id="Path_1748" data-name="Path 1748" d="M62.3,88a2.8,2.8,0,1,0,2.8-2.8A2.8,2.8,0,0,0,62.3,88Zm4.4,0a1.6,1.6,0,1,1-1.6-1.6A1.675,1.675,0,0,1,66.7,88Z" transform="translate(1232.419 5752.596)" fill="#7ecc3c"/>
    <path id="Path_1749" data-name="Path 1749" d="M88,85.2A2.8,2.8,0,1,0,90.8,88,2.8,2.8,0,0,0,88,85.2Zm0,4.4A1.6,1.6,0,1,1,89.6,88,1.634,1.634,0,0,1,88,89.6Z" transform="translate(1222.596 5752.596)" fill="#7ecc3c"/>
    <path id="Path_1750" data-name="Path 1750" d="M53.6,90.8A2.8,2.8,0,1,0,50.8,88,2.8,2.8,0,0,0,53.6,90.8Z" transform="translate(1237.353 5752.596)" fill="#7ecc3c"/>
    <path id="Path_1751" data-name="Path 1751" d="M76.6,85.2A2.8,2.8,0,1,0,79.4,88,2.879,2.879,0,0,0,76.6,85.2Z" transform="translate(1227.486 5752.596)" fill="#7ecc3c"/>
    <path id="Path_1752" data-name="Path 1752" d="M39.4,88a2.8,2.8,0,1,0,2.8-2.8A2.8,2.8,0,0,0,39.4,88Zm4.34,0a1.6,1.6,0,1,1-1.6-1.6A1.633,1.633,0,0,1,43.74,88Z" transform="translate(1242.243 5752.596)" fill="#7ecc3c"/>
    <path id="Path_1753" data-name="Path 1753" d="M22,88a2.8,2.8,0,1,0-2.8,2.8A2.8,2.8,0,0,0,22,88Zm-4.34,0a1.6,1.6,0,1,1,1.6,1.6A1.6,1.6,0,0,1,17.656,88Z" transform="translate(1252.109 5752.596)" fill="#7ecc3c"/>
    <path id="Path_1754" data-name="Path 1754" d="M50.8,65.1a2.8,2.8,0,1,0,2.8-2.8A2.8,2.8,0,0,0,50.8,65.1Z" transform="translate(1237.353 5762.419)" fill="#7ecc3c"/>
    <path id="Path_1755" data-name="Path 1755" d="M76.6,62.3a2.8,2.8,0,1,0,2.8,2.8A2.879,2.879,0,0,0,76.6,62.3Z" transform="translate(1227.486 5762.419)" fill="#7ecc3c"/>
    <path id="Path_1756" data-name="Path 1756" d="M42.2,62.3A2.8,2.8,0,1,0,45,65.1,2.8,2.8,0,0,0,42.2,62.3Zm0,4.4a1.6,1.6,0,1,1,1.6-1.6A1.675,1.675,0,0,1,42.2,66.7Z" transform="translate(1242.243 5762.419)" fill="#7ecc3c"/>
    <path id="Path_1757" data-name="Path 1757" d="M16.5,65.1a2.8,2.8,0,1,0,2.8-2.8A2.8,2.8,0,0,0,16.5,65.1Zm2.741-1.6a1.6,1.6,0,1,1-1.6,1.6A1.675,1.675,0,0,1,19.241,63.5Z" transform="translate(1252.067 5762.419)" fill="#7ecc3c"/>
    <path id="Path_1758" data-name="Path 1758" d="M27.9,88a2.8,2.8,0,1,0,2.8-2.8A2.8,2.8,0,0,0,27.9,88Z" transform="translate(1247.176 5752.596)" fill="#7ecc3c"/>
    <path id="Path_1759" data-name="Path 1759" d="M7.8,85.2A2.8,2.8,0,1,0,10.6,88,2.8,2.8,0,0,0,7.8,85.2Z" transform="translate(1257 5752.596)" fill="#7ecc3c"/>
    <path id="Path_1760" data-name="Path 1760" d="M65.612,40.086A.6.6,0,0,0,65.1,39.8a.681.681,0,0,0-.514.286c-.4.571-2.284,3.369-2.284,4.682a2.8,2.8,0,1,0,5.6,0C67.9,43.455,65.955,40.6,65.612,40.086ZM65.1,46.367a1.6,1.6,0,0,1-1.6-1.6,9.68,9.68,0,0,1,1.6-3.255,10.954,10.954,0,0,1,1.6,3.255A1.634,1.634,0,0,1,65.1,46.367Z" transform="translate(1232.419 5772.071)" fill="#7ecc3c"/>
    <path id="Path_1761" data-name="Path 1761" d="M64.614,14.479,68.9,5.857a.667.667,0,0,0,0-.571A.6.6,0,0,0,68.383,5H55.25a.6.6,0,0,0-.514.286.519.519,0,0,0,0,.571l4.283,8.622v3.026a.634.634,0,0,0,.628.628h1.6v4.625a.628.628,0,1,0,1.256,0V18.133h1.485a.634.634,0,0,0,.628-.628ZM58.447,10.6h6.738l-1.6,3.141h-3.6Zm8.908-4.4-1.6,3.141H57.762L56.163,6.2Zm-3.94,10.678H60.275V14.936h3.141Z" transform="translate(1235.701 5787)" fill="#7ecc3c"/>
    <path id="Path_1762" data-name="Path 1762" d="M31.212,40.086A.6.6,0,0,0,30.7,39.8a.681.681,0,0,0-.514.286c-.4.571-2.284,3.369-2.284,4.682a2.8,2.8,0,1,0,5.6,0C33.5,43.455,31.555,40.6,31.212,40.086Z" transform="translate(1247.176 5772.071)" fill="#7ecc3c"/>
    <path id="Path_1763" data-name="Path 1763" d="M33.983,5H20.85a.6.6,0,0,0-.514.286.519.519,0,0,0,0,.571l4.283,8.622v3.026a.634.634,0,0,0,.628.628h1.6v4.625a.628.628,0,1,0,1.256,0V18.133h1.6a.634.634,0,0,0,.628-.628V14.479l4.283-8.622a.667.667,0,0,0,0-.571C34.554,5.114,34.154,5,33.983,5Zm-2.57,4.34H23.419L21.82,6.2H32.955Z" transform="translate(1250.458 5787)" fill="#7ecc3c"/>
  </g>
</svg>
