<svg xmlns="http://www.w3.org/2000/svg" width="51.254" height="50.784" viewBox="0 0 51.254 50.784">
  <g id="Group_1331" data-name="Group 1331" transform="translate(-1512 -5872)">
    <path id="Path_1766" data-name="Path 1766" d="M19.042,19.006l7.242-4.273v-4.29l-11.118-6.5L4.211,10.3,4,10.474V23.436l11.024,6.351.236.131,3.783-2.162Zm-3.9,9.606L5.114,22.848V11.62l10.028,5.761ZM5.573,10.738,15.3,5.12l9.984,5.764L15.557,16.5h0Z" transform="translate(1508 5868.054)" fill="#7ecc3c"/>
    <path id="Path_1767" data-name="Path 1767" d="M67.007,3.946,56.131,10.3,56,10.474v4.259l7.242,4.273v8.756l3.542,2.025.276.131,11.224-6.483V10.444ZM66.729,16.5,57,10.885,66.983,5.12l9.73,5.618ZM77.17,22.848,67.142,28.612V17.381L77.17,11.62Z" transform="translate(1484.97 5868.054)" fill="#7ecc3c"/>
    <path id="Path_1768" data-name="Path 1768" d="M48.766,56.461l-7.624,4.4-7.669-4.427-3.3,1.921L30,58.533V71.5l10.944,6.35.2.131L52.284,71.5V58.5ZM40.585,76.5l-9.471-5.588V59.4L40.585,65ZM51.17,70.908,41.7,76.5V65l9.471-5.6Z" transform="translate(1496.485 5844.807)" fill="#7ecc3c"/>
    <path id="Path_1769" data-name="Path 1769" d="M52.056,31.919v-.6l-.421-.29-9.642,5.587-9.585-5.591L32,31.317v.6L41.471,37.5V48.648l.557.321.557-.321V37.5Z" transform="translate(1495.599 5856.062)" fill="#7ecc3c"/>
  </g>
</svg>
