<svg xmlns="http://www.w3.org/2000/svg" width="24.118" height="16.279" viewBox="0 0 24.118 16.279">
  <path id="Icon_zocial-email" data-name="Icon zocial-email" d="M.072,18.906V5.51q0-.023.07-.442l7.884,6.745L.165,19.371a1.971,1.971,0,0,1-.093-.465ZM1.119,4.138a1,1,0,0,1,.4-.07H22.748a1.317,1.317,0,0,1,.419.07l-7.907,6.768-1.047.837-2.07,1.7-2.07-1.7-1.047-.837Zm.023,16.14,7.931-7.605,3.07,2.489,3.07-2.489,7.931,7.605a1.117,1.117,0,0,1-.4.07H1.514a1.053,1.053,0,0,1-.372-.07Zm15.117-8.466L24.12,5.068a1.388,1.388,0,0,1,.07.442v13.4a1.783,1.783,0,0,1-.07.465Z" transform="translate(-0.072 -4.068)" fill="#7ecc3c"/>
</svg>
