<svg xmlns="http://www.w3.org/2000/svg" width="214" height="52.66" viewBox="0 0 214 52.66">
  <g id="Calque_2" transform="translate(861.4 380.2)">
    <g id="Group_52" data-name="Group 52" transform="translate(-861.4 -380.2)">
      <g id="Group_49" data-name="Group 49" transform="translate(42.889 6.272)">
        <path id="Path_7" data-name="Path 7" d="M-613.071-336.049l-.675,1.332-.142-.053a1.752,1.752,0,0,0,.018-.267.226.226,0,0,0-.124-.2c-.071-.053-.178-.107-.266-.16a4.162,4.162,0,0,0-2.025-.462,4.457,4.457,0,0,0-1.635.3,1.112,1.112,0,0,0-.764,1.066.94.94,0,0,0,.16.533,1.045,1.045,0,0,0,.462.355,4.1,4.1,0,0,0,.835.16c.2,0,.426.018.657.036s.426.018.586.018c.551.018.995.053,1.315.089a2.376,2.376,0,0,1,.906.3,1.325,1.325,0,0,1,.586.622,2,2,0,0,1,.2.853,1.608,1.608,0,0,1-.5,1.226,3.1,3.1,0,0,1-1.226.711,4.636,4.636,0,0,1-1.439.213,6.03,6.03,0,0,1-2.327-.444,9.69,9.69,0,0,1-.942-.426.349.349,0,0,0-.142-.071c-.053,0-.124.053-.231.142l-.071.071-.142-.089.782-1.315.142.071a.422.422,0,0,0-.053.267.212.212,0,0,0,.071.142.94.94,0,0,0,.2.16,1.325,1.325,0,0,0,.213.124.969.969,0,0,0,.142.071,4.85,4.85,0,0,0,2.292.551,4.37,4.37,0,0,0,1.048-.142,2.487,2.487,0,0,0,.924-.444,1.056,1.056,0,0,0,.373-.835.94.94,0,0,0-.16-.533.8.8,0,0,0-.426-.338,2.764,2.764,0,0,0-.551-.124c-.2-.018-.426-.036-.728-.053s-.444-.018-.462-.018c-.6-.036-1.048-.053-1.315-.089a3.267,3.267,0,0,1-.924-.213,1.763,1.763,0,0,1-.817-.551,1.5,1.5,0,0,1-.32-1.013,1.608,1.608,0,0,1,.5-1.226,2.918,2.918,0,0,1,1.208-.693,5.045,5.045,0,0,1,1.439-.213,6.486,6.486,0,0,1,2.7.586.849.849,0,0,0,.213.071c.089,0,.16-.071.231-.231Z" transform="translate(620 338.075)" fill="#fff"/>
        <path id="Path_8" data-name="Path 8" d="M-572.721-333.731v2.558h4.264a.611.611,0,0,0,.355-.089.547.547,0,0,0,.178-.3h.178v1.457h-.178a.421.421,0,0,0-.178-.3.611.611,0,0,0-.355-.089H-574v-.178a.509.509,0,0,0,.32-.178.611.611,0,0,0,.089-.355v-5.508a.611.611,0,0,0-.089-.355.657.657,0,0,0-.32-.178v-.16h5.508a.611.611,0,0,0,.355-.089.547.547,0,0,0,.178-.3h.16v1.457h-.16a.537.537,0,0,0-.16-.32.611.611,0,0,0-.355-.089H-572.7v2.327h2.683a.611.611,0,0,0,.355-.089.542.542,0,0,0,.178-.32h.178v1.457h-.178a.462.462,0,0,0-.178-.3.611.611,0,0,0-.355-.089h-2.7Z" transform="translate(582.173 339.061)" fill="#fff"/>
        <path id="Path_9" data-name="Path 9" d="M-530.321-331.8v2.416a.611.611,0,0,0,.089.355.657.657,0,0,0,.32.178v.16h-1.67v-.16a.656.656,0,0,0,.32-.178.626.626,0,0,0,.071-.355v-5.508a.611.611,0,0,0-.089-.355.657.657,0,0,0-.32-.178v-.178h4.1a6.519,6.519,0,0,1,1.084.089,2.054,2.054,0,0,1,.835.355,1.637,1.637,0,0,1,.533.622,1.79,1.79,0,0,1,.2.817c0,1.084-.657,1.706-1.972,1.848l1.723,2.736a.643.643,0,0,0,.5.284v.142h-1.706v-.16c.16-.053.249-.089.249-.142a1.2,1.2,0,0,0-.142-.3l-1.6-2.505h-2.523Zm0-.675h2.629a4.423,4.423,0,0,0,1.457-.2c.338-.142.515-.462.515-.995a1.168,1.168,0,0,0-.124-.533,1.1,1.1,0,0,0-.337-.409,2.622,2.622,0,0,0-1.421-.284h-2.736v2.416Z" transform="translate(547.306 337.252)" fill="#fff"/>
        <path id="Path_10" data-name="Path 10" d="M-487.662-329.584l2.221-5.046a1.874,1.874,0,0,0,.089-.338c0-.213-.124-.32-.373-.355v-.178H-484v.178a.64.64,0,0,0-.409.266,3.462,3.462,0,0,0-.32.64l-2.114,4.8a1.2,1.2,0,0,0-.142.551c0,.142.107.249.338.3v.16h-2.132v-.16c.231-.053.338-.16.338-.32a1.493,1.493,0,0,0-.142-.533l-2.168-4.8a3.823,3.823,0,0,0-.32-.622.681.681,0,0,0-.426-.284v-.178h1.9v.178c-.231.036-.355.142-.355.338a.949.949,0,0,0,.089.355Z" transform="translate(514.33 337.17)" fill="#fff"/>
        <path id="Path_11" data-name="Path 11" d="M-443.412-328.849v.16h-1.67v-.16a.656.656,0,0,0,.32-.178.626.626,0,0,0,.071-.355v-5.508a.611.611,0,0,0-.089-.355.657.657,0,0,0-.32-.178v-.178h1.67v.178a.465.465,0,0,0-.32.178.611.611,0,0,0-.089.355v5.508a.612.612,0,0,0,.089.355A.734.734,0,0,0-443.412-328.849Z" transform="translate(476.174 337.252)" fill="#fff"/>
        <path id="Path_12" data-name="Path 12" d="M-420.4-335.725l-.764,1.333-.142-.089c.035-.124.053-.2.053-.2a.32.32,0,0,0-.16-.284,3.932,3.932,0,0,0-.426-.249,4.238,4.238,0,0,0-1.972-.444,3.349,3.349,0,0,0-2.2.711,2.7,2.7,0,0,0-.977,2.221,2.63,2.63,0,0,0,.3,1.19,2.963,2.963,0,0,0,.8.959,3.311,3.311,0,0,0,2.114.675,3.61,3.61,0,0,0,1.208-.213,3.647,3.647,0,0,0,1.066-.586c.071-.053.124-.089.178-.124a.541.541,0,0,0,.142-.142.217.217,0,0,0,.071-.16.47.47,0,0,0-.053-.178.99.99,0,0,0-.071-.142l.142-.089.977,1.226-.124.107a.556.556,0,0,0-.3-.2.217.217,0,0,0-.16.071,5.125,5.125,0,0,1-1.492.835,4.854,4.854,0,0,1-1.67.284,4.218,4.218,0,0,1-2.772-.888,3.416,3.416,0,0,1-.924-1.19,3.243,3.243,0,0,1-.338-1.457,3.645,3.645,0,0,1,.32-1.546,3.355,3.355,0,0,1,.888-1.155,3.843,3.843,0,0,1,1.3-.711,5.055,5.055,0,0,1,1.563-.249,6.057,6.057,0,0,1,2.86.728,1.1,1.1,0,0,0,.2.053c.071,0,.16-.071.284-.213Z" transform="translate(462.03 337.91)" fill="#fff"/>
        <path id="Path_13" data-name="Path 13" d="M-375.921-333.731v2.558h4.264a.611.611,0,0,0,.355-.089.547.547,0,0,0,.178-.3h.178v1.457h-.178a.421.421,0,0,0-.178-.3.611.611,0,0,0-.355-.089H-377.2v-.178a.509.509,0,0,0,.32-.178.611.611,0,0,0,.089-.355v-5.508a.611.611,0,0,0-.089-.355.657.657,0,0,0-.32-.178v-.16h5.508a.611.611,0,0,0,.355-.089.547.547,0,0,0,.178-.3h.16v1.457h-.16a.537.537,0,0,0-.16-.32.611.611,0,0,0-.355-.089h-4.246v2.327h2.683a.611.611,0,0,0,.355-.089.542.542,0,0,0,.178-.32h.178v1.457h-.178a.462.462,0,0,0-.178-.3.611.611,0,0,0-.355-.089h-2.683Z" transform="translate(420.338 339.061)" fill="#fff"/>
        <path id="Path_14" data-name="Path 14" d="M-330.071-336.049l-.675,1.332-.142-.053a1.758,1.758,0,0,0,.018-.267.226.226,0,0,0-.124-.2c-.071-.053-.178-.107-.267-.16a4.162,4.162,0,0,0-2.025-.462,4.457,4.457,0,0,0-1.635.3,1.112,1.112,0,0,0-.764,1.066.94.94,0,0,0,.16.533,1.044,1.044,0,0,0,.462.355,4.1,4.1,0,0,0,.835.16c.2,0,.426.018.657.036s.426.018.586.018c.551.018.995.053,1.315.089a2.376,2.376,0,0,1,.906.3,1.325,1.325,0,0,1,.586.622,2,2,0,0,1,.2.853,1.608,1.608,0,0,1-.5,1.226,3.1,3.1,0,0,1-1.226.711,4.636,4.636,0,0,1-1.439.213,6.03,6.03,0,0,1-2.327-.444,9.7,9.7,0,0,1-.942-.426.349.349,0,0,0-.142-.071c-.053,0-.124.053-.231.142l-.071.071-.142-.089.782-1.315.142.071a.422.422,0,0,0-.053.267.212.212,0,0,0,.071.142.943.943,0,0,0,.2.16,1.328,1.328,0,0,0,.213.124.968.968,0,0,0,.142.071,4.849,4.849,0,0,0,2.292.551,4.371,4.371,0,0,0,1.048-.142,2.486,2.486,0,0,0,.924-.444,1.056,1.056,0,0,0,.373-.835.94.94,0,0,0-.16-.533.8.8,0,0,0-.426-.338,2.761,2.761,0,0,0-.551-.124c-.2-.018-.426-.036-.728-.053s-.444-.018-.462-.018c-.6-.036-1.048-.053-1.315-.089a3.267,3.267,0,0,1-.924-.213,1.763,1.763,0,0,1-.817-.551,1.5,1.5,0,0,1-.32-1.013,1.608,1.608,0,0,1,.5-1.226,2.917,2.917,0,0,1,1.208-.693,5.044,5.044,0,0,1,1.439-.213,6.486,6.486,0,0,1,2.7.586.85.85,0,0,0,.213.071c.089,0,.16-.071.231-.231Z" transform="translate(387.28 338.075)" fill="#fff"/>
        <path id="Path_15" data-name="Path 15" d="M-265.382-328.689v-.16a.657.657,0,0,0,.32-.178.626.626,0,0,0,.071-.355v-5.508a.611.611,0,0,0-.089-.355.657.657,0,0,0-.32-.178v-.178h3.5a9.379,9.379,0,0,1,1.048.053,3.089,3.089,0,0,1,.906.231,2.568,2.568,0,0,1,.8.515,3.122,3.122,0,0,1,.586.764,3.432,3.432,0,0,1,.355.924,3.686,3.686,0,0,1,.124.977,3.735,3.735,0,0,1-.284,1.457,2.939,2.939,0,0,1-.8,1.19,2.691,2.691,0,0,1-1.19.64,6.617,6.617,0,0,1-1.563.16Zm1.279-.657h2.168a6.825,6.825,0,0,0,.888-.053,2.247,2.247,0,0,0,.764-.231,2.148,2.148,0,0,0,.64-.5,2.972,2.972,0,0,0,.657-2.008,2.927,2.927,0,0,0-.657-2.025,1.85,1.85,0,0,0-.959-.6,5.775,5.775,0,0,0-1.332-.142H-264.1Z" transform="translate(328.401 337.252)" fill="#fff"/>
        <path id="Path_16" data-name="Path 16" d="M-214.651-342.088l-.2-.213a1.655,1.655,0,0,0,.835-1.1,1.042,1.042,0,0,1-.231.036.643.643,0,0,1-.48-.178.643.643,0,0,1-.178-.48.686.686,0,0,1,.2-.48.656.656,0,0,1,.48-.2.543.543,0,0,1,.515.32,1.549,1.549,0,0,1,.16.711A1.8,1.8,0,0,1-214.651-342.088Z" transform="translate(286.873 344.736)" fill="#fff"/>
        <path id="Path_17" data-name="Path 17" d="M-195.312-328.849v.16h-1.67v-.16a.656.656,0,0,0,.32-.178.626.626,0,0,0,.071-.355v-5.508a.611.611,0,0,0-.089-.355.657.657,0,0,0-.32-.178v-.178h1.67v.178a.464.464,0,0,0-.32.178.611.611,0,0,0-.089.355v5.508a.611.611,0,0,0,.089.355A.734.734,0,0,0-195.312-328.849Z" transform="translate(272.153 337.252)" fill="#fff"/>
        <path id="Path_18" data-name="Path 18" d="M-175.114-328.689l-2.931-5.81v5.117a.626.626,0,0,0,.071.355.656.656,0,0,0,.32.178v.16h-1.528v-.16a.656.656,0,0,0,.32-.178.626.626,0,0,0,.071-.355v-5.508a.611.611,0,0,0-.089-.355.657.657,0,0,0-.32-.178v-.178h2.114v.178c-.213.036-.32.124-.32.231a1.28,1.28,0,0,0,.142.426l2.185,4.406,2.185-4.406a.911.911,0,0,0,.142-.409c0-.124-.107-.213-.3-.249v-.178h2.114v.178a.463.463,0,0,0-.3.178.611.611,0,0,0-.089.355v5.508a.653.653,0,0,0,.089.355.547.547,0,0,0,.3.178v.16h-1.67v-.16a.656.656,0,0,0,.32-.178.611.611,0,0,0,.089-.355V-334.5Z" transform="translate(257.516 337.252)" fill="#fff"/>
        <path id="Path_19" data-name="Path 19" d="M-123.021-331.7v2.452a.437.437,0,0,0,.373.444v.2H-124.3v-.2c.266-.071.391-.213.391-.444v-5.65c0-.213-.124-.355-.391-.409v-.2h3.82a8.841,8.841,0,0,1,1.066.053,2.129,2.129,0,0,1,.8.266,1.591,1.591,0,0,1,.6.675,2,2,0,0,1,.213.906,2,2,0,0,1-.213.906,1.545,1.545,0,0,1-.6.657,2.129,2.129,0,0,1-.8.266,8.841,8.841,0,0,1-1.066.053h-2.541Zm0-.675h2.434a5.159,5.159,0,0,0,1.013-.071,1.3,1.3,0,0,0,.657-.338,1.149,1.149,0,0,0,.267-.835,1.15,1.15,0,0,0-.267-.835,1.231,1.231,0,0,0-.657-.338,5.394,5.394,0,0,0-1.013-.071h-2.434Z" transform="translate(212.37 337.17)" fill="#fff"/>
        <path id="Path_20" data-name="Path 20" d="M-80.421-331.8v2.416a.611.611,0,0,0,.089.355.656.656,0,0,0,.32.178v.16h-1.67v-.16a.656.656,0,0,0,.32-.178.626.626,0,0,0,.071-.355v-5.508a.611.611,0,0,0-.089-.355.657.657,0,0,0-.32-.178v-.178h4.1a6.519,6.519,0,0,1,1.084.089,2.054,2.054,0,0,1,.835.355,1.637,1.637,0,0,1,.533.622,1.789,1.789,0,0,1,.2.817c0,1.084-.657,1.706-1.972,1.848l1.723,2.736a.643.643,0,0,0,.5.284v.142h-1.706v-.16c.16-.053.249-.089.249-.142a1.207,1.207,0,0,0-.142-.3l-1.6-2.505h-2.523Zm0-.675h2.629a4.422,4.422,0,0,0,1.457-.2c.338-.142.515-.462.515-.995a1.169,1.169,0,0,0-.124-.533,1.1,1.1,0,0,0-.338-.409,2.621,2.621,0,0,0-1.421-.284h-2.736v2.416Z" transform="translate(177.338 337.252)" fill="#fff"/>
        <path id="Path_21" data-name="Path 21" d="M-35.121-333.731v2.558h4.264a.611.611,0,0,0,.355-.089.547.547,0,0,0,.178-.3h.178v1.457h-.178a.421.421,0,0,0-.178-.3.611.611,0,0,0-.355-.089H-36.4v-.178a.509.509,0,0,0,.32-.178.611.611,0,0,0,.089-.355v-5.508a.611.611,0,0,0-.089-.355.657.657,0,0,0-.32-.178v-.16h5.508a.611.611,0,0,0,.355-.089.547.547,0,0,0,.178-.3h.16v1.457h-.16a.537.537,0,0,0-.16-.32.611.611,0,0,0-.355-.089H-35.1v2.327h2.683a.611.611,0,0,0,.355-.089.542.542,0,0,0,.178-.32h.178v1.457h-.178a.462.462,0,0,0-.178-.3.611.611,0,0,0-.355-.089h-2.7Z" transform="translate(140.087 339.061)" fill="#fff"/>
        <path id="Path_22" data-name="Path 22" d="M10.829-336.049l-.675,1.332-.142-.053a1.757,1.757,0,0,0,.018-.267.226.226,0,0,0-.124-.2l-.266-.16a4.162,4.162,0,0,0-2.025-.462,4.458,4.458,0,0,0-1.635.3,1.112,1.112,0,0,0-.764,1.066.94.94,0,0,0,.16.533,1.044,1.044,0,0,0,.462.355,4.1,4.1,0,0,0,.835.16c.2,0,.426.018.657.036s.426.018.586.018c.551.018.995.053,1.315.089a2.376,2.376,0,0,1,.906.3,1.325,1.325,0,0,1,.586.622,2,2,0,0,1,.2.853,1.608,1.608,0,0,1-.5,1.226,2.981,2.981,0,0,1-1.226.711,5.231,5.231,0,0,1-1.439.213,6.03,6.03,0,0,1-2.327-.444,9.693,9.693,0,0,1-.942-.426.35.35,0,0,0-.142-.071c-.053,0-.124.053-.231.142l-.071.071-.142-.089.782-1.315.142.071a.422.422,0,0,0-.053.267.212.212,0,0,0,.071.142.943.943,0,0,0,.2.16,1.326,1.326,0,0,0,.213.124.966.966,0,0,0,.142.071,4.849,4.849,0,0,0,2.292.551,4.371,4.371,0,0,0,1.048-.142,2.486,2.486,0,0,0,.924-.444,1.071,1.071,0,0,0,.391-.835.94.94,0,0,0-.16-.533.8.8,0,0,0-.426-.338,2.763,2.763,0,0,0-.551-.124c-.2-.018-.426-.036-.728-.053s-.444-.018-.462-.018c-.6-.036-1.048-.053-1.315-.089a3.267,3.267,0,0,1-.924-.213,1.763,1.763,0,0,1-.817-.551,1.5,1.5,0,0,1-.32-1.013,1.608,1.608,0,0,1,.5-1.226,2.917,2.917,0,0,1,1.208-.693,5.044,5.044,0,0,1,1.439-.213,6.486,6.486,0,0,1,2.7.586.849.849,0,0,0,.213.071c.089,0,.16-.071.231-.231Z" transform="translate(106.946 338.075)" fill="#fff"/>
        <path id="Path_23" data-name="Path 23" d="M54.729-336.049l-.675,1.332-.142-.053a1.757,1.757,0,0,0,.018-.267.226.226,0,0,0-.124-.2l-.267-.16a4.162,4.162,0,0,0-2.025-.462,4.458,4.458,0,0,0-1.635.3,1.112,1.112,0,0,0-.764,1.066.94.94,0,0,0,.16.533,1.044,1.044,0,0,0,.462.355,4.1,4.1,0,0,0,.835.16c.2,0,.426.018.657.036s.426.018.586.018c.551.018.995.053,1.315.089a2.376,2.376,0,0,1,.906.3,1.325,1.325,0,0,1,.586.622,2,2,0,0,1,.2.853,1.608,1.608,0,0,1-.5,1.226,2.981,2.981,0,0,1-1.226.711,5.231,5.231,0,0,1-1.439.213,6.03,6.03,0,0,1-2.327-.444,9.693,9.693,0,0,1-.942-.426.35.35,0,0,0-.142-.071c-.053,0-.124.053-.231.142l-.071.071-.142-.089.782-1.315.142.071a.422.422,0,0,0-.053.267.212.212,0,0,0,.071.142.942.942,0,0,0,.2.16c.089.053.142.089.213.124a.966.966,0,0,0,.142.071,4.849,4.849,0,0,0,2.292.551,4.371,4.371,0,0,0,1.048-.142,2.486,2.486,0,0,0,.924-.444,1.071,1.071,0,0,0,.391-.835.94.94,0,0,0-.16-.533.8.8,0,0,0-.426-.338,2.763,2.763,0,0,0-.551-.124c-.2-.018-.426-.036-.728-.053s-.444-.018-.462-.018c-.6-.036-1.048-.053-1.315-.089a3.267,3.267,0,0,1-.924-.213,1.763,1.763,0,0,1-.817-.551,1.5,1.5,0,0,1-.32-1.013,1.608,1.608,0,0,1,.5-1.226,2.917,2.917,0,0,1,1.208-.693,5.044,5.044,0,0,1,1.439-.213,6.486,6.486,0,0,1,2.7.586.849.849,0,0,0,.213.071c.089,0,.16-.071.231-.231Z" transform="translate(70.846 338.075)" fill="#fff"/>
        <path id="Path_24" data-name="Path 24" d="M95.488-328.849v.16h-1.67v-.16a.656.656,0,0,0,.32-.178.626.626,0,0,0,.071-.355v-5.508a.611.611,0,0,0-.089-.355.657.657,0,0,0-.32-.178v-.178h1.67v.178a.464.464,0,0,0-.32.178.611.611,0,0,0-.089.355v5.508a.611.611,0,0,0,.089.355A.844.844,0,0,0,95.488-328.849Z" transform="translate(33.019 337.252)" fill="#fff"/>
        <path id="Path_25" data-name="Path 25" d="M119.033-332.611a3.476,3.476,0,0,1-.32,1.457,3.433,3.433,0,0,1-.888,1.19,4.428,4.428,0,0,1-2.949.959,4.445,4.445,0,0,1-2.967-.959,3.327,3.327,0,0,1-.888-1.19,3.417,3.417,0,0,1-.32-1.457,3.417,3.417,0,0,1,.32-1.457,3.214,3.214,0,0,1,.888-1.173,3.682,3.682,0,0,1,1.35-.728,5.39,5.39,0,0,1,1.617-.231,4.4,4.4,0,0,1,2.949.959,3.422,3.422,0,0,1,.888,1.173A3.417,3.417,0,0,1,119.033-332.611Zm-.924-.018a2.62,2.62,0,0,0-.444-1.528,2.831,2.831,0,0,0-1.19-.995,3.758,3.758,0,0,0-1.6-.355,3.838,3.838,0,0,0-1.617.355,2.966,2.966,0,0,0-1.19.995,2.582,2.582,0,0,0-.444,1.528,2.62,2.62,0,0,0,.444,1.528,2.831,2.831,0,0,0,1.19.995,3.778,3.778,0,0,0,1.617.355,3.758,3.758,0,0,0,1.6-.355,2.966,2.966,0,0,0,1.19-.995A2.714,2.714,0,0,0,118.109-332.629Z" transform="translate(19.121 337.746)" fill="#fff"/>
        <path id="Path_26" data-name="Path 26" d="M165.955-334.581v5.117a.626.626,0,0,0,.071.355.657.657,0,0,0,.32.178v.16h-1.528v-.16a.657.657,0,0,0,.32-.178.626.626,0,0,0,.071-.355v-5.508a.611.611,0,0,0-.089-.355.656.656,0,0,0-.32-.178v-.178h2.256v.178c-.213.053-.338.142-.338.284a.747.747,0,0,0,.249.462l4.069,4.548v-4.779a.611.611,0,0,0-.089-.355.657.657,0,0,0-.32-.178v-.178h1.528v.178a.464.464,0,0,0-.32.178.611.611,0,0,0-.089.355v5.508a.626.626,0,0,0,.071.355.656.656,0,0,0,.32.178v.16h-1.812v-.16c.124-.036.2-.071.249-.089s.071-.071.071-.142a.283.283,0,0,0-.071-.213c-.053-.053-.124-.142-.231-.266Z" transform="translate(-25.367 337.335)" fill="#fff"/>
        <path id="Path_27" data-name="Path 27" d="M240.626-342.288l-1.119-1.261.142-.142a.427.427,0,0,0,.3.142.283.283,0,0,0,.142-.053l.16-.107a.984.984,0,0,0,.142-.107A5.13,5.13,0,0,1,243.5-344.9a4.587,4.587,0,0,1,1.35.2,2.742,2.742,0,0,1,1.013.533,2.382,2.382,0,0,1,.6.746,1.892,1.892,0,0,1,.213.853,1.758,1.758,0,0,1-1.4,1.688,2.048,2.048,0,0,1,1.759,2.114,1.974,1.974,0,0,1-.533,1.4,3.484,3.484,0,0,1-1.368.871,4.875,4.875,0,0,1-1.635.284,6.676,6.676,0,0,1-1.51-.16,6.751,6.751,0,0,1-1.4-.515,4.709,4.709,0,0,0-.426-.213c-.178-.071-.284-.124-.3-.124a.713.713,0,0,0-.3.2l-.16-.107.906-1.492.16.089a.836.836,0,0,0-.071.284c.018.124.213.3.569.551a4.541,4.541,0,0,0,2.505.657,3.621,3.621,0,0,0,1.368-.231,2.075,2.075,0,0,0,.924-.622,1.412,1.412,0,0,0,.32-.906,1.442,1.442,0,0,0-.551-1.19,3.036,3.036,0,0,0-1.848-.462H242.9a.611.611,0,0,0-.355.089.547.547,0,0,0-.178.3h-.2v-1.581h.2a.464.464,0,0,0,.178.32.611.611,0,0,0,.355.089h.657a4.837,4.837,0,0,0,.942-.071,1.689,1.689,0,0,0,.693-.284,1.134,1.134,0,0,0,.5-.959,1.127,1.127,0,0,0-.355-.835,2,2,0,0,0-.871-.5,3.322,3.322,0,0,0-.995-.16,3.524,3.524,0,0,0-2.363.8,2.792,2.792,0,0,1-.231.178.679.679,0,0,0-.16.16.331.331,0,0,0-.071.2.709.709,0,0,0,.107.284Z" transform="translate(-86.713 344.9)" fill="#fff"/>
        <path id="Path_28" data-name="Path 28" d="M291.218-328.689v-.16a.657.657,0,0,0,.32-.178.626.626,0,0,0,.071-.355v-5.508a.611.611,0,0,0-.089-.355.657.657,0,0,0-.32-.178v-.178h3.518a9.379,9.379,0,0,1,1.048.053,3.237,3.237,0,0,1,.906.231,2.568,2.568,0,0,1,.8.515,3.122,3.122,0,0,1,.586.764,3.433,3.433,0,0,1,.355.924,3.686,3.686,0,0,1,.124.977,3.735,3.735,0,0,1-.284,1.457,2.939,2.939,0,0,1-.8,1.19,2.691,2.691,0,0,1-1.19.64,6.617,6.617,0,0,1-1.563.16Zm1.279-.657h2.168a6.825,6.825,0,0,0,.888-.053,2.248,2.248,0,0,0,.764-.231,2.148,2.148,0,0,0,.64-.5,2.972,2.972,0,0,0,.657-2.008,2.927,2.927,0,0,0-.657-2.025,1.85,1.85,0,0,0-.959-.6,5.775,5.775,0,0,0-1.332-.142H292.5Z" transform="translate(-129.31 337.252)" fill="#fff"/>
      </g>
      <g id="Group_50" data-name="Group 50" transform="translate(43.262 34.592)">
        <path id="Path_29" data-name="Path 29" d="M-616.425-182.888l-1.333-1.261.178-.142a.614.614,0,0,0,.355.142.287.287,0,0,0,.16-.053,1.931,1.931,0,0,1,.2-.107.619.619,0,0,0,.16-.107,7.049,7.049,0,0,1,3.749-1.084,6.5,6.5,0,0,1,1.617.2,3.6,3.6,0,0,1,1.208.533,2.236,2.236,0,0,1,.728.746,1.741,1.741,0,0,1,.249.853c0,.8-.569,1.35-1.688,1.688,1.421.3,2.132,1.013,2.132,2.114a1.8,1.8,0,0,1-.64,1.4,4.112,4.112,0,0,1-1.635.871,6.877,6.877,0,0,1-1.972.284,9.553,9.553,0,0,1-1.812-.16,9.139,9.139,0,0,1-1.688-.515c-.124-.053-.3-.142-.515-.213a1.586,1.586,0,0,0-.373-.124.789.789,0,0,0-.355.2l-.2-.107,1.084-1.492.2.089a.563.563,0,0,0-.071.284c.036.124.249.3.693.551a6.249,6.249,0,0,0,3,.657,5.23,5.23,0,0,0,1.652-.231,2.43,2.43,0,0,0,1.1-.622,1.313,1.313,0,0,0,.391-.906,1.365,1.365,0,0,0-.657-1.19,4.268,4.268,0,0,0-2.221-.462h-.942a.848.848,0,0,0-.426.089.577.577,0,0,0-.213.3h-.249v-1.581h.249a.563.563,0,0,0,.213.32.848.848,0,0,0,.426.089h.782a6.7,6.7,0,0,0,1.119-.071,2.218,2.218,0,0,0,.835-.284,1.092,1.092,0,0,0,.6-.959,1.027,1.027,0,0,0-.426-.835,2.617,2.617,0,0,0-1.048-.5,4.807,4.807,0,0,0-1.208-.16,4.931,4.931,0,0,0-2.86.8c-.124.089-.213.142-.266.178a.721.721,0,0,0-.178.16.375.375,0,0,0-.089.2.675.675,0,0,0,.142.284Z" transform="translate(617.9 185.5)" fill="#fff"/>
        <path id="Path_30" data-name="Path 30" d="M-555.5-169.289v-.16a.718.718,0,0,0,.373-.178.5.5,0,0,0,.089-.355v-5.508a.611.611,0,0,0-.089-.355.908.908,0,0,0-.373-.178v-.178h4.211c.462,0,.888.018,1.261.053a4.679,4.679,0,0,1,1.1.231,3.123,3.123,0,0,1,.959.515,3.22,3.22,0,0,1,.711.764,3.682,3.682,0,0,1,.444.924,3.712,3.712,0,0,1,.142.977,3.242,3.242,0,0,1-.338,1.457,2.975,2.975,0,0,1-.959,1.19,3.551,3.551,0,0,1-1.421.64,9.545,9.545,0,0,1-1.883.16Zm1.528-.675h2.612a9.711,9.711,0,0,0,1.066-.053,3.207,3.207,0,0,0,.924-.231,2.036,2.036,0,0,0,.764-.5,2.664,2.664,0,0,0,.782-2.008,2.69,2.69,0,0,0-.782-2.025,2.343,2.343,0,0,0-1.155-.6,8.272,8.272,0,0,0-1.617-.142h-2.612v5.561Z" transform="translate(566.586 177.852)" fill="#fff"/>
        <path id="Path_31" data-name="Path 31" d="M-464.772-172.4v2.452c0,.231.16.373.462.444v.2h-1.99v-.2c.32-.071.462-.213.462-.444v-5.65c0-.213-.16-.355-.462-.409v-.2h4.6c.515,0,.942.018,1.3.053a2.735,2.735,0,0,1,.959.266,1.636,1.636,0,0,1,.711.675,1.829,1.829,0,0,1,.249.906,1.829,1.829,0,0,1-.249.906,1.645,1.645,0,0,1-.728.657,2.967,2.967,0,0,1-.959.267,12.613,12.613,0,0,1-1.279.053h-3.074Zm0-.675h2.931a7.555,7.555,0,0,0,1.226-.071,1.644,1.644,0,0,0,.782-.338,1.034,1.034,0,0,0,.32-.835,1.034,1.034,0,0,0-.32-.835,1.644,1.644,0,0,0-.782-.338,7.555,7.555,0,0,0-1.226-.071h-2.931Z" transform="translate(493.234 177.852)" fill="#fff"/>
        <path id="Path_32" data-name="Path 32" d="M-413.472-172.5v2.416a.5.5,0,0,0,.107.355.891.891,0,0,0,.391.178v.16H-415v-.16a.718.718,0,0,0,.373-.178.5.5,0,0,0,.089-.355v-5.508a.611.611,0,0,0-.089-.355.908.908,0,0,0-.373-.178v-.178h4.939a9.1,9.1,0,0,1,1.3.089,2.556,2.556,0,0,1,.995.355,1.658,1.658,0,0,1,.64.622,1.618,1.618,0,0,1,.231.817c0,1.084-.782,1.706-2.363,1.848l2.079,2.736a.841.841,0,0,0,.586.284v.142h-2.043v-.16c.2-.053.284-.089.284-.142a.956.956,0,0,0-.16-.3l-1.919-2.505h-3.038Zm0-.675h3.18a6.309,6.309,0,0,0,1.759-.2.916.916,0,0,0,.622-.995,1.2,1.2,0,0,0-.142-.533,1.006,1.006,0,0,0-.409-.409,3.772,3.772,0,0,0-1.723-.284h-3.287Z" transform="translate(451.049 177.935)" fill="#fff"/>
        <path id="Path_33" data-name="Path 33" d="M-358.575-169.549v.16H-360.6v-.16a.718.718,0,0,0,.373-.178.611.611,0,0,0,.089-.355v-5.508a.611.611,0,0,0-.089-.355.908.908,0,0,0-.373-.178v-.178h2.025v.178a.619.619,0,0,0-.391.178.531.531,0,0,0-.107.355v5.508a.5.5,0,0,0,.107.355A.728.728,0,0,0-358.575-169.549Z" transform="translate(406.314 177.935)" fill="#fff"/>
        <path id="Path_34" data-name="Path 34" d="M-337.932-175.281v5.117a.611.611,0,0,0,.089.355.8.8,0,0,0,.373.178v.16h-1.83v-.16a.718.718,0,0,0,.373-.178.611.611,0,0,0,.089-.355v-5.508a.611.611,0,0,0-.089-.355.909.909,0,0,0-.373-.178v-.178h2.7v.178c-.266.053-.391.142-.391.284s.089.284.284.462l4.886,4.548v-4.779a.611.611,0,0,0-.089-.355.909.909,0,0,0-.373-.178v-.178h1.83v.178a.613.613,0,0,0-.373.178.5.5,0,0,0-.089.355v5.508a.611.611,0,0,0,.089.355.8.8,0,0,0,.373.178v.16h-2.168v-.16c.142-.036.231-.071.3-.089a.141.141,0,0,0,.089-.142.294.294,0,0,0-.089-.213c-.053-.053-.142-.142-.284-.267Z" transform="translate(388.798 178.017)" fill="#fff"/>
        <path id="Path_35" data-name="Path 35" d="M-278.3-177.252v5.543a.5.5,0,0,0,.107.355.891.891,0,0,0,.391.178v.16h-2.025v-.16a.718.718,0,0,0,.373-.178.5.5,0,0,0,.089-.355v-5.543h-2.7a.848.848,0,0,0-.426.089.562.562,0,0,0-.213.32h-.2V-178.3h.2a.577.577,0,0,0,.213.3.848.848,0,0,0,.426.089h6.485a.848.848,0,0,0,.426-.089.477.477,0,0,0,.2-.3h.213v1.457h-.213a.475.475,0,0,0-.2-.32.848.848,0,0,0-.426-.089Z" transform="translate(342.418 179.579)" fill="#fff"/>
        <path id="Path_36" data-name="Path 36" d="M-228.575-169.549v.16H-230.6v-.16a.718.718,0,0,0,.373-.178.611.611,0,0,0,.089-.355v-5.508a.611.611,0,0,0-.089-.355.908.908,0,0,0-.373-.178v-.178h2.025v.178a.619.619,0,0,0-.391.178.531.531,0,0,0-.107.355v5.508a.5.5,0,0,0,.107.355A.728.728,0,0,0-228.575-169.549Z" transform="translate(299.41 177.935)" fill="#fff"/>
        <path id="Path_37" data-name="Path 37" d="M-207.832-175.281v5.117a.611.611,0,0,0,.089.355.8.8,0,0,0,.373.178v.16h-1.83v-.16a.718.718,0,0,0,.373-.178.611.611,0,0,0,.089-.355v-5.508a.611.611,0,0,0-.089-.355.908.908,0,0,0-.373-.178v-.178h2.7v.178c-.266.053-.391.142-.391.284s.089.284.284.462l4.886,4.548v-4.779a.611.611,0,0,0-.089-.355.908.908,0,0,0-.373-.178v-.178h1.83v.178a.613.613,0,0,0-.373.178.5.5,0,0,0-.089.355v5.508a.611.611,0,0,0,.089.355.8.8,0,0,0,.373.178v.16h-2.168v-.16c.142-.036.231-.071.3-.089a.141.141,0,0,0,.089-.142.294.294,0,0,0-.089-.213c-.053-.053-.142-.142-.284-.267Z" transform="translate(281.813 178.017)" fill="#fff"/>
        <path id="Path_38" data-name="Path 38" d="M-141.157-175.789l-.995,1.35-.16-.071a1.6,1.6,0,0,0,.053-.267.232.232,0,0,0-.124-.213,1.207,1.207,0,0,0-.338-.2c-.142-.071-.231-.107-.231-.107a5.551,5.551,0,0,0-2.434-.533,4.914,4.914,0,0,0-1.866.355,3.184,3.184,0,0,0-1.368,1.013,2.414,2.414,0,0,0-.515,1.492,2.455,2.455,0,0,0,.515,1.546,3.074,3.074,0,0,0,1.386.977,5.217,5.217,0,0,0,1.937.338,7.029,7.029,0,0,0,1.6-.2,4.815,4.815,0,0,0,1.368-.586v-1.279h-1.865a.848.848,0,0,0-.426.089.562.562,0,0,0-.213.32h-.213v-1.457h.213a.512.512,0,0,0,.213.3.848.848,0,0,0,.426.089h3.269v.16a.613.613,0,0,0-.373.178.5.5,0,0,0-.107.355v.728a.611.611,0,0,0,.089.355.73.73,0,0,0,.373.178v.142a7.132,7.132,0,0,1-2.043,1.03,7.89,7.89,0,0,1-2.345.355,5.917,5.917,0,0,1-3.376-.888,3.787,3.787,0,0,1-1.084-1.173,2.84,2.84,0,0,1-.409-1.421,2.966,2.966,0,0,1,.391-1.528,3.351,3.351,0,0,1,1.066-1.173,5.058,5.058,0,0,1,1.563-.728,7.2,7.2,0,0,1,1.883-.249,7.488,7.488,0,0,1,3.145.711l.32.142a.866.866,0,0,0,.231.071c.089,0,.213-.089.355-.249Z" transform="translate(233.295 178.099)" fill="#fff"/>
        <path id="Path_39" data-name="Path 39" d="M-52.738-176.649l-.8,1.333-.178-.053c.018-.124.036-.213.036-.266a.249.249,0,0,0-.142-.2,2.024,2.024,0,0,0-.338-.16,5.889,5.889,0,0,0-2.434-.462,6.372,6.372,0,0,0-1.972.3q-.906.32-.906,1.066a.857.857,0,0,0,.2.533,1.346,1.346,0,0,0,.551.355,6.071,6.071,0,0,0,1.013.16c.249,0,.515.018.8.036s.515.018.693.018c.675.018,1.19.053,1.581.089a3.171,3.171,0,0,1,1.084.3,1.53,1.53,0,0,1,.711.622,1.621,1.621,0,0,1,.231.853,1.514,1.514,0,0,1-.586,1.226,3.936,3.936,0,0,1-1.475.711,6.579,6.579,0,0,1-1.741.213,8.682,8.682,0,0,1-2.807-.444q-.64-.213-1.119-.426a.547.547,0,0,0-.16-.071.489.489,0,0,0-.266.142l-.071.071-.16-.089.942-1.315.178.071c-.053.036-.071.124-.071.266a.259.259,0,0,0,.089.142,1.3,1.3,0,0,0,.231.16,1.792,1.792,0,0,0,.267.124.871.871,0,0,0,.178.071,6.834,6.834,0,0,0,2.772.551,6.239,6.239,0,0,0,1.261-.142,3.514,3.514,0,0,0,1.119-.444,1,1,0,0,0,.462-.835.857.857,0,0,0-.2-.533.943.943,0,0,0-.515-.338,3.91,3.91,0,0,0-.657-.124c-.231-.018-.515-.036-.871-.053s-.551-.018-.569-.018c-.728-.036-1.244-.053-1.581-.089a4.446,4.446,0,0,1-1.1-.213,2.265,2.265,0,0,1-.995-.551,1.368,1.368,0,0,1-.373-1.013,1.514,1.514,0,0,1,.586-1.226,3.7,3.7,0,0,1,1.457-.693,7.152,7.152,0,0,1,1.723-.213,9.233,9.233,0,0,1,3.251.586.954.954,0,0,0,.266.071c.107,0,.2-.071.284-.231Z" transform="translate(159.943 178.675)" fill="#fff"/>
        <path id="Path_40" data-name="Path 40" d="M-4.554-174.331v2.558H.58a.848.848,0,0,0,.426-.089.477.477,0,0,0,.2-.3h.213v1.457H1.2a.433.433,0,0,0-.2-.3A.848.848,0,0,0,.58-171.1H-6.1v-.178a.613.613,0,0,0,.373-.178.5.5,0,0,0,.089-.355v-5.508a.611.611,0,0,0-.089-.355.908.908,0,0,0-.373-.178v-.16H.509a.848.848,0,0,0,.426-.089.577.577,0,0,0,.213-.3h.2v1.457h-.2a.475.475,0,0,0-.2-.32.848.848,0,0,0-.426-.089H-4.554v2.327h3.234a.848.848,0,0,0,.426-.089.562.562,0,0,0,.213-.32h.213v1.457H-.681a.5.5,0,0,0-.213-.3.848.848,0,0,0-.426-.089H-4.554Z" transform="translate(114.797 179.661)" fill="#fff"/>
        <path id="Path_41" data-name="Path 41" d="M46.428-172.5v2.416a.5.5,0,0,0,.107.355.891.891,0,0,0,.391.178v.16H44.9v-.16a.718.718,0,0,0,.373-.178.5.5,0,0,0,.089-.355v-5.508a.611.611,0,0,0-.089-.355.908.908,0,0,0-.373-.178v-.178h4.939a9.1,9.1,0,0,1,1.3.089,2.556,2.556,0,0,1,.995.355,1.658,1.658,0,0,1,.64.622,1.617,1.617,0,0,1,.231.817c0,1.084-.782,1.706-2.363,1.848l2.079,2.736a.841.841,0,0,0,.586.284v.142H51.243v-.16c.2-.053.284-.089.284-.142a.957.957,0,0,0-.16-.3l-1.919-2.505h-3.02Zm0-.675h3.18a6.31,6.31,0,0,0,1.759-.2.916.916,0,0,0,.622-.995,1.2,1.2,0,0,0-.142-.533,1.006,1.006,0,0,0-.409-.409,3.772,3.772,0,0,0-1.723-.284H46.428Z" transform="translate(72.858 177.935)" fill="#fff"/>
        <path id="Path_42" data-name="Path 42" d="M97.555-170.284l2.665-5.046a1.264,1.264,0,0,0,.107-.338c0-.213-.142-.32-.444-.355v-.178h2.061v.178a.831.831,0,0,0-.5.266,3.852,3.852,0,0,0-.391.64l-2.541,4.8a1.1,1.1,0,0,0-.178.551c0,.142.142.249.409.3v.16H96.187v-.16c.267-.053.409-.16.409-.32a1.1,1.1,0,0,0-.178-.533l-2.612-4.8a3.2,3.2,0,0,0-.391-.622.959.959,0,0,0-.515-.284v-.178h2.292v.178c-.284.036-.426.142-.426.338a.736.736,0,0,0,.107.355Z" transform="translate(33.386 177.852)" fill="#fff"/>
        <path id="Path_43" data-name="Path 43" d="M151.025-169.549v.16H149v-.16a.718.718,0,0,0,.373-.178.611.611,0,0,0,.089-.355v-5.508a.611.611,0,0,0-.089-.355.908.908,0,0,0-.373-.178v-.178h2.025v.178a.619.619,0,0,0-.391.178.531.531,0,0,0-.107.355v5.508a.5.5,0,0,0,.107.355A.728.728,0,0,0,151.025-169.549Z" transform="translate(-12.747 177.935)" fill="#fff"/>
        <path id="Path_44" data-name="Path 44" d="M178.279-176.425l-.924,1.333-.178-.089c.036-.124.053-.2.053-.2a.3.3,0,0,0-.178-.284,4.764,4.764,0,0,0-.515-.249,6.048,6.048,0,0,0-2.381-.444,4.559,4.559,0,0,0-2.647.711,2.565,2.565,0,0,0-1.19,2.221,2.313,2.313,0,0,0,.355,1.19,3.09,3.09,0,0,0,.959.959,4.546,4.546,0,0,0,2.541.675,5.164,5.164,0,0,0,1.457-.213,4.693,4.693,0,0,0,1.279-.586,1.325,1.325,0,0,1,.213-.124.7.7,0,0,0,.178-.142.246.246,0,0,0,.089-.16.471.471,0,0,0-.053-.178.671.671,0,0,0-.089-.142l.16-.089,1.173,1.226-.16.107a.746.746,0,0,0-.373-.2.331.331,0,0,0-.2.071,7.073,7.073,0,0,1-1.777.835,6.856,6.856,0,0,1-2.008.284,5.836,5.836,0,0,1-3.34-.888,3.769,3.769,0,0,1-1.119-1.19,2.916,2.916,0,0,1-.409-1.457,3.031,3.031,0,0,1,.391-1.546,3.3,3.3,0,0,1,1.066-1.155,5.025,5.025,0,0,1,1.563-.711,7.2,7.2,0,0,1,1.883-.249,8.366,8.366,0,0,1,3.429.728,1.541,1.541,0,0,0,.231.053.622.622,0,0,0,.338-.213Z" transform="translate(-29.358 178.592)" fill="#fff"/>
        <path id="Path_45" data-name="Path 45" d="M232.128-174.331v2.558h5.135a.848.848,0,0,0,.426-.089.477.477,0,0,0,.2-.3h.213v1.457h-.213a.433.433,0,0,0-.2-.3.848.848,0,0,0-.426-.089H230.6v-.178a.613.613,0,0,0,.373-.178.53.53,0,0,0,.089-.355v-5.508a.611.611,0,0,0-.089-.355.8.8,0,0,0-.373-.178v-.16h6.609a.848.848,0,0,0,.426-.089.577.577,0,0,0,.213-.3h.2v1.457h-.2a.475.475,0,0,0-.2-.32.877.877,0,0,0-.444-.089h-5.081v2.327h3.234a.848.848,0,0,0,.426-.089.562.562,0,0,0,.213-.32h.213v1.457H236a.5.5,0,0,0-.213-.3.848.848,0,0,0-.426-.089h-3.234Z" transform="translate(-79.85 179.661)" fill="#fff"/>
        <path id="Path_46" data-name="Path 46" d="M287.662-176.649l-.8,1.333-.178-.053c.018-.124.036-.213.036-.266a.249.249,0,0,0-.142-.2,2.023,2.023,0,0,0-.338-.16,5.889,5.889,0,0,0-2.434-.462,6.372,6.372,0,0,0-1.972.3q-.906.32-.906,1.066a.857.857,0,0,0,.2.533,1.345,1.345,0,0,0,.551.355,6.07,6.07,0,0,0,1.013.16c.249,0,.515.018.8.036s.515.018.693.018c.675.018,1.19.053,1.581.089a3.171,3.171,0,0,1,1.084.3,1.53,1.53,0,0,1,.711.622,1.621,1.621,0,0,1,.231.853,1.514,1.514,0,0,1-.586,1.226,3.936,3.936,0,0,1-1.475.711,7.408,7.408,0,0,1-1.741.213,8.681,8.681,0,0,1-2.807-.444q-.64-.213-1.119-.426a.547.547,0,0,0-.16-.071.489.489,0,0,0-.266.142l-.071.071-.16-.089.942-1.315.178.071c-.053.036-.071.124-.071.266a.259.259,0,0,0,.089.142,1.3,1.3,0,0,0,.231.16,1.793,1.793,0,0,0,.266.124.871.871,0,0,0,.178.071,6.833,6.833,0,0,0,2.772.551,6.239,6.239,0,0,0,1.261-.142,3.514,3.514,0,0,0,1.119-.444,1,1,0,0,0,.462-.835.857.857,0,0,0-.2-.533.943.943,0,0,0-.515-.338,3.909,3.909,0,0,0-.657-.124c-.231-.018-.515-.036-.871-.053s-.551-.018-.569-.018c-.728-.036-1.244-.053-1.581-.089a4.446,4.446,0,0,1-1.1-.213,2.265,2.265,0,0,1-.995-.551,1.368,1.368,0,0,1-.373-1.013,1.514,1.514,0,0,1,.586-1.226,3.7,3.7,0,0,1,1.457-.693,7.152,7.152,0,0,1,1.723-.213,9.233,9.233,0,0,1,3.251.586.954.954,0,0,0,.266.071c.107,0,.2-.071.284-.231Z" transform="translate(-119.979 178.675)" fill="#fff"/>
      </g>
      <g id="Group_51" data-name="Group 51" transform="translate(42.178 11.335)">
        <path id="Path_47" data-name="Path 47" d="M-619.239-303.864v13.574a1.186,1.186,0,0,0,.213.764,1.311,1.311,0,0,0,.675.391v.533H-624v-.533a1.349,1.349,0,0,0,.657-.409,1.093,1.093,0,0,0,.231-.764v-18.868a1.186,1.186,0,0,0-.213-.764,1.327,1.327,0,0,0-.675-.409v-.533h7.444v.533a1.18,1.18,0,0,0-.444.267.922.922,0,0,0-.213.5,1.907,1.907,0,0,0,.2.871l5.259,11.193,5.294-11c.018-.053.089-.178.2-.409a2.4,2.4,0,0,0,.2-.569c0-.569-.249-.871-.728-.871v-.533h7.284v.533a1.349,1.349,0,0,0-.657.409,1.092,1.092,0,0,0-.231.764v18.868a1.186,1.186,0,0,0,.213.764,1.328,1.328,0,0,0,.675.409v.533h-6.023v-.533a1.122,1.122,0,0,0,.924-1.155v-13.574l-7.515,14.96Z" transform="translate(624 311.877)" fill="#fff"/>
        <path id="Path_48" data-name="Path 48" d="M-468.036-296.786h12.419c.533,0,.888-.373,1.048-1.1h.426v5.774h-.426a1.648,1.648,0,0,0-.355-.728.87.87,0,0,0-.675-.267h-17.5v-.533a1.349,1.349,0,0,0,.657-.409,1.093,1.093,0,0,0,.231-.764v-18.868a1.545,1.545,0,0,0-.142-.693,1.25,1.25,0,0,0-.746-.462v-.533h17.18a.857.857,0,0,0,.657-.249,1.689,1.689,0,0,0,.355-.782h.462v5.739h-.462a1.613,1.613,0,0,0-.355-.764.831.831,0,0,0-.657-.266h-12.1v5.277h7.835a1.053,1.053,0,0,0,.6-.16,1.625,1.625,0,0,0,.409-.871h.462v5.614h-.462a1.613,1.613,0,0,0-.355-.764.831.831,0,0,0-.657-.266h-7.835v6.076Z" transform="translate(499.91 316.4)" fill="#fff"/>
        <path id="Path_49" data-name="Path 49" d="M-348.3-296.114v5.987a1.128,1.128,0,0,0,.924,1.173v.533H-353.4v-.533a1.349,1.349,0,0,0,.657-.409,1.092,1.092,0,0,0,.231-.764v-18.868a1.186,1.186,0,0,0-.213-.764,1.328,1.328,0,0,0-.675-.409v-.533h6.023v.551a1.146,1.146,0,0,0-.924,1.19v7.924l7.959-7.622a1.244,1.244,0,0,0,.373-.373,1.025,1.025,0,0,0,.178-.409.543.543,0,0,0-.231-.5,1.439,1.439,0,0,0-.586-.213v-.533h7.906v.533a3.663,3.663,0,0,0-1.6.977l-1.439,1.439-6.574,6.112,7.444,10.322c.6.8,1.066,1.368,1.386,1.723a2.22,2.22,0,0,0,1.279.657v.533h-7.551v-.533a1.947,1.947,0,0,0,.515-.2.4.4,0,0,0,.231-.373,1.277,1.277,0,0,0-.231-.675c-.213-.267-.355-.462-.426-.569l-5.7-8.048Z" transform="translate(401.477 311.713)" fill="#fff"/>
        <path id="Path_50" data-name="Path 50" d="M-214.018-294.106l-1.3,3.145c-.089.267-.16.462-.2.586a1.515,1.515,0,0,0-.053.409.87.87,0,0,0,.249.64,1.635,1.635,0,0,0,.675.373v.533H-221v-.533a1.406,1.406,0,0,0,.888-.5,5.15,5.15,0,0,0,.64-1.208l7.089-17.127a6.476,6.476,0,0,0,.249-.622,1.989,1.989,0,0,0,.107-.622,1.121,1.121,0,0,0-.817-1.137v-.533h6.822v.533a2.21,2.21,0,0,0-.569.3.8.8,0,0,0-.267.675,1.752,1.752,0,0,0,.053.426c.036.16.107.373.2.64l7.373,17.163a6.723,6.723,0,0,0,.746,1.421,1.529,1.529,0,0,0,.995.586v.533h-7.089v-.533a1.579,1.579,0,0,0,.675-.266.79.79,0,0,0,.249-.64,2.3,2.3,0,0,0-.266-1.1l-1.333-3.145Zm4.424-10.98-3.18,7.942h6.307Z" transform="translate(292.6 311.713)" fill="#fff"/>
        <path id="Path_51" data-name="Path 51" d="M-70.921-290.126a1.186,1.186,0,0,0,.213.764,1.327,1.327,0,0,0,.675.409v.533H-75.7v-.533a1.348,1.348,0,0,0,.657-.409,1.092,1.092,0,0,0,.231-.764v-18.868a1.186,1.186,0,0,0-.213-.764,1.328,1.328,0,0,0-.675-.409v-.533h6.574v.533a1.166,1.166,0,0,0-.444.249.652.652,0,0,0-.16.48.8.8,0,0,0,.124.444,2.8,2.8,0,0,0,.267.426L-58.7-295.776v-13.218a1.128,1.128,0,0,0-.924-1.173v-.533h5.668v.533a1.349,1.349,0,0,0-.657.409,1.093,1.093,0,0,0-.231.764v18.868a1.186,1.186,0,0,0,.213.764,1.327,1.327,0,0,0,.675.409v.533h-6.041v-.533a1.127,1.127,0,0,0,.444-.213.675.675,0,0,0,.124-.391,1,1,0,0,0-.16-.551q-.16-.24-.533-.693L-70.9-303.7v13.574Z" transform="translate(173.115 311.713)" fill="#fff"/>
        <path id="Path_52" data-name="Path 52" d="M65.723-288.421H59.7v-.533a1.349,1.349,0,0,0,.657-.409,1.093,1.093,0,0,0,.231-.764v-18.868a1.186,1.186,0,0,0-.213-.764,1.328,1.328,0,0,0-.675-.409v-.533h6.023v.533a1.128,1.128,0,0,0-.924,1.173v18.868a1.128,1.128,0,0,0,.924,1.173Z" transform="translate(61.771 311.713)" fill="#fff"/>
        <path id="Path_53" data-name="Path 53" d="M122.757-305.345l-.426-.266a1.347,1.347,0,0,0-.2-.764A11.594,11.594,0,0,0,120.5-307.8a7.279,7.279,0,0,0-4.477-1.119,10.908,10.908,0,0,0-3.34.462,2.224,2.224,0,0,0-1.546,2.132,1.712,1.712,0,0,0,.728,1.581,13.452,13.452,0,0,0,4.1.853,24.573,24.573,0,0,1,6.2,1.528c1.883.764,2.825,2.576,2.825,5.472a6.015,6.015,0,0,1-2.7,5.454,11.5,11.5,0,0,1-6.236,1.723,14.93,14.93,0,0,1-3.7-.444,11.167,11.167,0,0,1-2.843-1.048c-.693-.409-1.155-.675-1.368-.8a1.2,1.2,0,0,0-.586-.2.947.947,0,0,0-.657.338l-.409-.267,2.079-5.437.426.2c0,1.244.817,2.2,2.434,2.878a11.643,11.643,0,0,0,4.459.995,8.67,8.67,0,0,0,3.465-.675,2.435,2.435,0,0,0,1.546-2.434c0-1.173-1.51-1.972-4.513-2.363a29.737,29.737,0,0,1-6.858-1.564c-1.563-.64-2.345-2.345-2.345-5.1a6,6,0,0,1,2.541-5.4,10.76,10.76,0,0,1,6.058-1.67,11.652,11.652,0,0,1,3.269.48,16.128,16.128,0,0,1,2.665.995c.675.355,1.137.586,1.386.711a2.461,2.461,0,0,0,.746.249.733.733,0,0,0,.338-.107,1.787,1.787,0,0,0,.391-.3l.373.231Z" transform="translate(23.286 313.357)" fill="#fff"/>
        <path id="Path_54" data-name="Path 54" d="M228.9-296.114v5.987a1.128,1.128,0,0,0,.924,1.173v.533H223.8v-.533a1.349,1.349,0,0,0,.657-.409,1.093,1.093,0,0,0,.231-.764v-18.868a1.186,1.186,0,0,0-.213-.764,1.328,1.328,0,0,0-.675-.409v-.533h6.023v.551a1.146,1.146,0,0,0-.924,1.19v7.924l7.959-7.622a1.244,1.244,0,0,0,.373-.373,1.025,1.025,0,0,0,.178-.409.543.543,0,0,0-.231-.5,1.438,1.438,0,0,0-.586-.213v-.533H244.5v.533a3.663,3.663,0,0,0-1.6.977l-1.439,1.439-6.574,6.112,7.444,10.322c.6.8,1.066,1.368,1.386,1.723a2.22,2.22,0,0,0,1.279.657v.533h-7.551v-.533a1.947,1.947,0,0,0,.515-.2.4.4,0,0,0,.231-.373,1.277,1.277,0,0,0-.231-.675c-.213-.267-.355-.462-.426-.569l-5.7-8.084Z" transform="translate(-73.174 311.713)" fill="#fff"/>
      </g>
      <path id="Path_55" data-name="Path 55" d="M-842.976-380.2-861.4-353.905l18.424,26.366,18.513-26.33-13.751-19.757-13.894,19.757,9.168,13.325,9.47-13.325-4.744-6.609-2.86,3.944,1.759,2.665-3.624,5.064-3.624-5.064,8.279-12.028,8.333,12.028-12.987,18.477-12.774-18.477,15.67-22.262Z" transform="translate(861.4 380.2)" fill="#fff"/>
    </g>
  </g>
</svg>
