<svg xmlns="http://www.w3.org/2000/svg" width="21.806" height="21.806" viewBox="0 0 21.806 21.806">
  <path id="Icon_awesome-phone-alt" data-name="Icon awesome-phone-alt" d="M21.184,15.409l-4.77-2.044a1.022,1.022,0,0,0-1.193.294L13.109,16.24A15.786,15.786,0,0,1,5.562,8.693L8.143,6.581a1.02,1.02,0,0,0,.294-1.193L6.393.618A1.029,1.029,0,0,0,5.222.026L.792,1.048a1.022,1.022,0,0,0-.792,1A19.759,19.759,0,0,0,19.762,21.806a1.022,1.022,0,0,0,1-.792l1.022-4.429a1.035,1.035,0,0,0-.6-1.175Z" fill="#7ecc3c"/>
</svg>
