<svg xmlns="http://www.w3.org/2000/svg" width="23.336" height="26.672" viewBox="0 0 23.336 26.672">
  <path id="Icon_simple-clockify" data-name="Icon simple-clockify" d="M17.035,9.166l6.043-6.128,1.73,1.753-6.043,6.128L17.034,9.166Zm-2.448,6.262a2.124,2.124,0,0,1-1.516-.641,2.208,2.208,0,0,1-.625-1.539,2.141,2.141,0,1,1,4.282,0,2.209,2.209,0,0,1-.626,1.539,2.126,2.126,0,0,1-1.516.641Zm10.249,6.329-1.729,1.755-6.043-6.129,1.731-1.753Zm-10.184.917a9.024,9.024,0,0,0,3.442-.683l2.952,3a12.939,12.939,0,0,1-6.394,1.686A13.245,13.245,0,0,1,1.5,13.336,13.246,13.246,0,0,1,14.652,0,12.94,12.94,0,0,1,20.99,1.651L18.088,4.6a9.032,9.032,0,0,0-3.436-.681,9.3,9.3,0,0,0-9.21,9.38A9.3,9.3,0,0,0,14.652,22.675Z" transform="translate(-1.5)" fill="#7ecc3c"/>
</svg>
